<svg width="124" height="100" viewBox="0 0 124 100" fill="none" xmlns="http://www.w3.org/2000/svg">
<path d="M21.3168 79.2215C19.9525 79.2215 18.6015 79.4902 17.341 80.0123C16.0805 80.5344 14.9352 81.2997 13.9705 82.2644C13.0058 83.2292 12.2405 84.3745 11.7184 85.6349C11.1963 86.8954 10.9275 88.2464 10.9276 89.6107C10.9275 90.9751 11.1963 92.3261 11.7184 93.5865C12.2405 94.847 13.0058 95.9923 13.9705 96.957C14.9352 97.9218 16.0805 98.687 17.341 99.2091C18.6015 99.7312 19.9525 100 21.3168 100C22.6811 100 24.0321 99.7312 25.2926 99.2091C26.5531 98.687 27.6984 97.9218 28.6631 96.957C29.6278 95.9923 30.3931 94.847 30.9152 93.5865C31.4373 92.3261 31.706 90.9751 31.706 89.6107C31.706 88.2464 31.4373 86.8954 30.9152 85.6349C30.3931 84.3745 29.6278 83.2292 28.6631 82.2644C27.6984 81.2997 26.5531 80.5344 25.2926 80.0123C24.0321 79.4902 22.6811 79.2215 21.3168 79.2215ZM21.3168 83.5049C22.9362 83.5049 24.4892 84.1481 25.6343 85.2932C26.7794 86.4383 27.4227 87.9914 27.4227 89.6107C27.4227 91.2301 26.7794 92.7832 25.6343 93.9283C24.4892 95.0733 22.9362 95.7166 21.3168 95.7166C19.6974 95.7166 18.1443 95.0733 16.9993 93.9283C15.8542 92.7832 15.2109 91.2301 15.2109 89.6107C15.2109 87.9914 15.8542 86.4383 16.9993 85.2932C18.1443 84.1481 19.6974 83.5049 21.3168 83.5049Z" fill="#1C759E"/>
<path d="M99.5358 79.1187C98.1715 79.1187 96.8205 79.3874 95.56 79.9095C94.2996 80.4316 93.1543 81.1969 92.1895 82.1616C91.2248 83.1263 90.4595 84.2716 89.9374 85.5321C89.4153 86.7926 89.1466 88.1436 89.1466 89.5079C89.1466 90.8723 89.4153 92.2232 89.9374 93.4837C90.4595 94.7442 91.2248 95.8895 92.1895 96.8542C93.1543 97.819 94.2996 98.5842 95.56 99.1063C96.8205 99.6284 98.1715 99.8972 99.5358 99.8972C100.9 99.8972 102.251 99.6284 103.512 99.1063C104.772 98.5842 105.917 97.819 106.882 96.8542C107.847 95.8895 108.612 94.7442 109.134 93.4837C109.656 92.2232 109.925 90.8723 109.925 89.5079C109.925 88.1436 109.656 86.7926 109.134 85.5321C108.612 84.2716 107.847 83.1263 106.882 82.1616C105.917 81.1969 104.772 80.4316 103.512 79.9095C102.251 79.3874 100.9 79.1187 99.5358 79.1187ZM99.5358 83.402C101.155 83.4021 102.708 84.0453 103.853 85.1904C104.998 86.3355 105.642 87.8885 105.642 89.5079C105.642 91.1273 104.998 92.6804 103.853 93.8254C102.708 94.9705 101.155 95.6138 99.5358 95.6138C97.9165 95.6138 96.3634 94.9705 95.2183 93.8254C94.0732 92.6804 93.4299 91.1273 93.4299 89.5079C93.4299 87.8885 94.0732 86.3355 95.2183 85.1904C96.3634 84.0453 97.9165 83.4021 99.5358 83.402Z" fill="#1C759E"/>
<path d="M59.5865 76.8943C50.4524 76.198 42.056 69.6281 39.1968 60.9402C38.353 58.3763 38.0883 56.8223 37.975 53.7675C37.8007 49.0703 38.4504 46.0046 40.5199 41.758C41.5463 39.652 42.3915 38.3233 46.5593 32.2638C53.4135 22.2987 56.7849 15.4572 60.8589 3.24613C61.3482 1.77959 61.7485 0.44993 61.7485 0.29129C61.7485 -0.568303 62.171 0.415967 63.3525 4.02847C65.7826 11.4587 69.3433 19.635 72.4187 24.8468C73.1909 26.1554 75.2976 29.4433 77.1002 32.1534C78.9029 34.8634 80.8615 37.9026 81.4527 38.9071C85.7115 46.1434 86.688 53.5173 84.3235 60.5859C80.731 71.3256 70.9682 77.762 59.5865 76.8943ZM72.3765 66.5621C76.5707 63.2516 79.5877 57.0169 78.6184 50.3879C78.003 46.1788 76.5906 43.4609 70.9821 35.6923C67.8211 31.3139 66.0543 28.5838 64.6481 25.9049C63.5094 23.7356 61.9589 19.7346 61.9313 18.8944C61.9227 18.6813 61.5408 19.6508 61.0789 21.0489C59.4658 25.9322 56.9149 30.1812 50.1002 39.336C33.7023 59.9738 57.7531 78.1043 72.3765 66.5621Z" fill="#1C759E"/>
<path d="M0.334484 88.749C-0.0776795 87.9789 -0.0975879 86.6133 0.212338 84.9904C0.771901 82.0603 3.03719 77.6618 4.97334 75.3912C6.77562 73.2776 8.9317 71.4684 11.0106 70.4149C14.309 68.7435 17.067 68.1393 21.3978 68.1393C25.8138 68.1393 27.8445 68.6241 31.9352 70.6547C34.6616 72.0081 39.3453 76.7915 40.8217 79.7304L40.9016 79.8895C41.208 80.4995 41.6781 81.0124 42.2592 81.3708C42.8403 81.7292 43.5096 81.919 44.1924 81.919H60.8247H78.0917C78.5787 81.919 79.0552 81.7775 79.4632 81.5118C79.8713 81.2461 80.1934 80.8676 80.3904 80.4223C81.8333 77.1604 85.4109 73.0155 88.427 71.1116C97.2318 65.5533 109.987 67.8658 115.845 76.0825C116.19 76.5665 116.529 77.0117 116.808 77.3521C117.13 77.7451 117.528 77.6036 117.573 77.0956C117.965 72.6524 118.56 53.2951 109.954 47.1614C108.508 46.4064 107.814 46.2399 105.822 46.254L88.3118 46.3781C87.5003 46.3845 86.7101 45.7431 86.4844 44.9638C86.1515 43.8147 85.7266 42.7344 85.2038 41.7024C84.5688 40.4489 85.0428 39.5126 86.4491 39.5087L106.102 39.454C110.454 39.467 113.215 40.3839 115.829 42.6847C123.197 50.5304 123.624 64.5924 123.529 74.6315C123.529 87.2665 123.494 88.3069 122.962 88.8167C122.947 88.8297 122.925 88.8509 122.91 88.8636C122.453 89.2542 121.646 89.3596 118.545 89.375C118.019 89.3782 117.166 89.3766 116.64 89.3798C112.316 89.4024 112.797 89.4875 112.333 86.6211C111.751 83.0342 108.713 79.2406 104.932 77.3788C102.188 76.028 98.5872 75.7101 95.8352 76.5757C93.1674 77.4148 90.8448 79.1636 89.2544 81.5305C87.7735 83.7347 87.292 85.0433 86.9938 87.6749L86.8009 89.3771H60.9228H35.0447L34.8578 88.1612C34.0524 82.9216 31.3907 79.3588 26.5855 77.0884C24.0894 75.9091 18.6887 75.7682 15.7948 77.1241C11.7743 79.008 8.85257 82.8963 8.05496 87.4244L7.71101 89.377H4.19056C1.04183 89.377 0.63468 89.3099 0.334484 88.749Z" fill="#1C759E"/>
</svg>
