<svg width="24" height="24" viewBox="0 0 18 21" fill="none" xmlns="http://www.w3.org/2000/svg">
<path fill-rule="evenodd" clip-rule="evenodd" d="M11.1243 17.9392C11.1243 19.3137 10.0176 20.4276 8.65317 20.4276C7.28876 20.4276 6.182 19.3137 6.182 17.9392H11.1243ZM16.8276 14.451C16.8785 14.5049 16.9274 14.5566 16.9737 14.6067C17.2055 14.8571 17.3083 15.1573 17.3063 15.4508C17.3025 16.0885 16.8049 16.695 16.0663 16.695H1.24005C0.501445 16.695 0.00427602 16.0885 2.67084e-05 15.4508C-0.0019048 15.1573 0.100851 14.8575 0.332632 14.6067C0.378988 14.5566 0.427853 14.5049 0.478735 14.451C1.24705 13.638 2.47544 12.3382 2.47544 8.60776C2.47544 5.58671 4.58001 3.16831 7.41778 2.57498V1.7647C7.41778 1.07767 7.97096 0.520508 8.65317 0.520508C9.33538 0.520508 9.88856 1.07767 9.88856 1.7647V2.57498C10.3421 2.6698 10.7769 2.81124 11.1873 2.9943C11.1245 3.24157 11.0911 3.5007 11.0911 3.76768C11.0911 5.48556 12.4747 6.87817 14.1815 6.87817C14.3172 6.87817 14.4509 6.86935 14.5821 6.85227C14.7441 7.40576 14.8309 7.99434 14.8309 8.60776C14.8309 12.3382 16.0593 13.638 16.8276 14.451Z" fill="#1C759E"/>
<ellipse cx="14.4217" cy="2.91825" rx="2.88439" ry="2.91825" fill="#E30000"/>
</svg>
