<svg width="31" height="31" viewBox="0 0 31 31" fill="none" xmlns="http://www.w3.org/2000/svg">
<circle opacity="0.5" cx="15.5" cy="15.5" r="15.5" fill="#27AE60"/>
<circle cx="15.5" cy="15.5" r="11.5" fill="#27AE60"/>
<path fill-rule="evenodd" clip-rule="evenodd" d="M14.9808 21.3251C15.1222 21.3891 15.2755 21.4229 15.4308 21.4242C15.5857 21.4233 15.7388 21.3902 15.8803 21.3268C16.0217 21.2634 16.1484 21.1713 16.2522 21.0562C17.609 19.547 19.8914 16.7257 19.8914 14.8671C19.9082 13.6666 19.448 12.5085 18.6116 11.647C17.7753 10.7856 16.6312 10.2913 15.4308 10.2727C14.2303 10.2913 13.0862 10.7856 12.2499 11.647C11.4135 12.5085 10.9533 13.6666 10.9701 14.8671C10.9701 16.7369 13.2525 19.5656 14.6093 21.0525C14.7128 21.1682 14.8393 21.2611 14.9808 21.3251ZM14.1919 16.5878C14.5586 16.8329 14.9899 16.9637 15.431 16.9637C16.0225 16.9637 16.5898 16.7287 17.008 16.3104C17.4263 15.8922 17.6613 15.3249 17.6613 14.7334C17.6613 14.2923 17.5305 13.8611 17.2854 13.4943C17.0403 13.1275 16.692 12.8416 16.2845 12.6728C15.8769 12.504 15.4285 12.4599 14.9959 12.5459C14.5632 12.632 14.1658 12.8444 13.8539 13.1563C13.542 13.4682 13.3296 13.8656 13.2435 14.2983C13.1575 14.7309 13.2016 15.1793 13.3704 15.5869C13.5392 15.9944 13.8251 16.3427 14.1919 16.5878ZM14.6049 13.4971C14.8494 13.3337 15.1369 13.2465 15.431 13.2465C15.8253 13.2465 16.2035 13.4032 16.4823 13.682C16.7612 13.9608 16.9178 14.339 16.9178 14.7334C16.9178 15.0274 16.8306 15.3149 16.6673 15.5594C16.5039 15.8039 16.2717 15.9945 16 16.1071C15.7283 16.2196 15.4293 16.249 15.1409 16.1917C14.8525 16.1343 14.5875 15.9927 14.3796 15.7847C14.1716 15.5768 14.03 15.3119 13.9727 15.0234C13.9153 14.735 13.9447 14.4361 14.0573 14.1644C14.1698 13.8927 14.3604 13.6605 14.6049 13.4971Z" fill="#F2F2F2"/>
</svg>
