<svg width="18" height="19" viewBox="0 0 18 19" fill="none" xmlns="http://www.w3.org/2000/svg">
<path fill-rule="evenodd" clip-rule="evenodd" d="M16.461 4.75006L11.457 0.845886C9.99328 -0.281962 8.00672 -0.281962 6.543 0.845886L1.548 4.75006C0.580898 5.48542 0.00549302 6.66476 0 7.92279V14.9807C0.0540221 17.2541 1.84198 19.052 3.996 18.9989H14.004C16.158 19.052 17.946 17.2541 18 14.9807V7.91329C17.9923 6.66069 17.421 5.48651 16.461 4.75006ZM16.65 14.9807C16.5963 16.4673 15.4126 17.6274 14.004 17.574H3.99602C2.5893 17.6222 1.40854 16.4649 1.35002 14.9807V7.92279C1.35482 7.11528 1.72638 6.35922 2.34902 5.88996L7.34402 1.99529C8.33051 1.23495 9.66954 1.23495 10.656 1.99529L15.651 5.89946C16.2731 6.36057 16.6454 7.11094 16.65 7.91329V14.9807ZM4.94994 13.0619H13.0499C13.4227 13.0619 13.7249 13.3808 13.7249 13.7743C13.7249 14.1678 13.4227 14.4867 13.0499 14.4867H4.94994C4.57714 14.4867 4.27494 14.1678 4.27494 13.7743C4.27494 13.3808 4.57714 13.0619 4.94994 13.0619Z" fill="white"/>
</svg>
