<svg width="272" height="75" viewBox="0 0 272 75" fill="none" xmlns="http://www.w3.org/2000/svg">
<path d="M15.8748 58.9963C14.8588 58.9963 13.8527 59.1965 12.914 59.5853C11.9753 59.9741 11.1224 60.544 10.404 61.2624C9.68555 61.9809 9.11566 62.8338 8.72684 63.7724C8.33803 64.7111 8.13791 65.7172 8.13791 66.7332C8.13791 67.7492 8.33803 68.7553 8.72684 69.694C9.11566 70.6327 9.68555 71.4856 10.404 72.204C11.1224 72.9225 11.9753 73.4924 12.914 73.8812C13.8527 74.27 14.8588 74.4701 15.8748 74.4701C16.8908 74.4701 17.8969 74.27 18.8356 73.8812C19.7743 73.4924 20.6272 72.9225 21.3456 72.204C22.064 71.4856 22.6339 70.6327 23.0228 69.694C23.4116 68.7553 23.6117 67.7492 23.6117 66.7332C23.6117 65.7172 23.4116 64.7111 23.0228 63.7724C22.6339 62.8338 22.064 61.9809 21.3456 61.2624C20.6272 60.544 19.7743 59.9741 18.8356 59.5853C17.8969 59.1965 16.8908 58.9963 15.8748 58.9963ZM15.8748 62.1862C17.0808 62.1862 18.2373 62.6652 19.0901 63.518C19.9428 64.3707 20.4219 65.5273 20.4219 66.7332C20.4219 67.9392 19.9428 69.0958 19.0901 69.9485C18.2373 70.8012 17.0808 71.2803 15.8748 71.2803C14.6688 71.2803 13.5123 70.8012 12.6595 69.9485C11.8068 69.0958 11.3277 67.9392 11.3277 66.7332C11.3277 65.5273 11.8068 64.3707 12.6595 63.518C13.5123 62.6652 14.6688 62.1862 15.8748 62.1862Z" fill="#1C759E"/>
<path d="M74.1245 58.9199C73.1084 58.9199 72.1024 59.12 71.1637 59.5089C70.225 59.8977 69.3721 60.4676 68.6537 61.186C67.9352 61.9044 67.3653 62.7573 66.9765 63.696C66.5877 64.6347 66.3876 65.6408 66.3876 66.6568C66.3876 67.6728 66.5877 68.6789 66.9765 69.6176C67.3653 70.5563 67.9352 71.4092 68.6536 72.1276C69.3721 72.8461 70.225 73.4159 71.1637 73.8048C72.1024 74.1936 73.1084 74.3937 74.1245 74.3937C75.1405 74.3937 76.1465 74.1936 77.0852 73.8048C78.0239 73.4159 78.8768 72.8461 79.5953 72.1276C80.3137 71.4092 80.8836 70.5563 81.2724 69.6176C81.6612 68.6789 81.8613 67.6728 81.8613 66.6568C81.8613 65.6408 81.6612 64.6347 81.2724 63.696C80.8836 62.7573 80.3137 61.9044 79.5953 61.186C78.8768 60.4676 78.0239 59.8977 77.0852 59.5089C76.1466 59.12 75.1405 58.9199 74.1245 58.9199ZM74.1245 62.1098C75.3304 62.1098 76.487 62.5888 77.3397 63.4415C78.1925 64.2943 78.6715 65.4509 78.6715 66.6568C78.6715 67.8628 78.1925 69.0193 77.3397 69.8721C76.487 70.7248 75.3304 71.2039 74.1245 71.2039C72.9185 71.2039 71.7619 70.7248 70.9092 69.8721C70.0565 69.0193 69.5774 67.8628 69.5774 66.6568C69.5774 65.4509 70.0565 64.2943 70.9092 63.4415C71.7619 62.5888 72.9185 62.1098 74.1245 62.1098Z" fill="#1C759E"/>
<path d="M44.374 57.2634C37.5718 56.7448 31.319 51.8522 29.1898 45.3823C28.5614 43.473 28.3643 42.3157 28.2799 40.0408C28.1501 36.5428 28.6339 34.2597 30.1751 31.0973C30.9394 29.5289 31.5689 28.5394 34.6726 24.0269C39.7769 16.6059 42.2877 11.511 45.3216 2.4174C45.686 1.32527 45.9841 0.335064 45.9841 0.216924C45.9841 -0.423216 46.2987 0.309772 47.1786 3.00001C48.9883 8.53333 51.6399 14.6222 53.9302 18.5035C54.5052 19.478 56.0741 21.9265 57.4165 23.9447C58.759 25.9628 60.2176 28.2261 60.6578 28.9742C63.8294 34.3631 64.5565 39.8544 62.7957 45.1184C60.1204 53.1164 52.85 57.9095 44.374 57.2634ZM53.8987 49.5689C57.0222 47.1036 59.2689 42.4606 58.5471 37.524C58.0888 34.3895 57.037 32.3654 52.8603 26.5802C50.5063 23.3195 49.1906 21.2864 48.1434 19.2914C47.2954 17.676 46.1407 14.6964 46.1202 14.0707C46.1138 13.912 45.8294 14.634 45.4854 15.6752C44.2841 19.3118 42.3845 22.476 37.3096 29.2936C25.098 44.6626 43.0087 58.1644 53.8987 49.5689Z" fill="#1C759E"/>
<path d="M0.249091 66.0914C-0.0578481 65.5179 -0.0726739 64.501 0.158128 63.2924C0.574836 61.1103 2.2618 57.8348 3.70366 56.1439C5.04582 54.5699 6.65146 53.2225 8.19961 52.438C10.6559 51.1933 12.7098 50.7434 15.935 50.7434C19.2236 50.7434 20.7359 51.1044 23.7822 52.6166C25.8126 53.6245 29.3005 57.1867 30.4 59.3753L30.4595 59.4937C30.6877 59.9481 31.0378 60.33 31.4705 60.5969C31.9033 60.8638 32.4017 61.0051 32.9101 61.0051H45.2963H58.1551C58.5177 61.0051 58.8725 60.8998 59.1764 60.7019C59.4803 60.504 59.7202 60.2222 59.8669 59.8905C60.9414 57.4614 63.6057 54.3747 65.8518 52.9568C72.4088 48.8176 81.9073 50.5397 86.2697 56.6586C86.5267 57.0191 86.7795 57.3507 86.9871 57.6042C87.2269 57.8968 87.5237 57.7915 87.5571 57.4131C87.8487 54.1043 88.2919 39.6888 81.8826 35.1211C80.8063 34.5588 80.2896 34.4349 78.8058 34.4454L65.766 34.5377C65.1617 34.5426 64.5732 34.0649 64.4051 33.4846C64.1572 32.6288 63.8408 31.8243 63.4515 31.0558C62.9785 30.1223 63.3316 29.425 64.3788 29.4221L79.0145 29.3813C82.2555 29.391 84.3115 30.0738 86.2581 31.7873C91.745 37.63 92.0627 48.102 91.9925 55.5781C91.9925 64.9874 91.9663 65.7622 91.57 66.1419C91.5591 66.1515 91.5424 66.1674 91.5314 66.1768C91.1912 66.4677 90.5902 66.5461 88.2805 66.5576C87.889 66.56 87.2541 66.5588 86.8624 66.5612C83.6417 66.578 84.0004 66.6414 83.6544 64.5068C83.2215 61.8357 80.9592 59.0105 78.1428 57.6241C76.0994 56.6181 73.4181 56.3814 71.3687 57.026C69.382 57.6509 67.6523 58.9532 66.468 60.7158C65.3651 62.3573 65.0066 63.3318 64.7845 65.2915L64.6408 66.5592H45.3694H26.0979L25.9587 65.6537C25.3589 61.7518 23.3767 59.0985 19.7983 57.4078C17.9395 56.5296 13.9175 56.4246 11.7624 57.4344C8.76832 58.8373 6.59253 61.733 5.99855 65.105L5.74241 66.5591H3.12072C0.775856 66.5591 0.472647 66.5092 0.249091 66.0914Z" fill="#1C759E"/>
<path d="M112.925 58.0557C112.77 54.4368 111.79 49.9012 110.81 46.1376L107.478 33.3578C107.413 33.1082 107.26 32.8862 107.044 32.7275C106.828 32.5688 106.561 32.4825 106.287 32.4825H99.9198C99.7797 32.4825 99.6415 32.5124 99.5157 32.57C99.3899 32.6275 99.2798 32.7112 99.1938 32.8146C99.1078 32.918 99.0482 33.0384 99.0195 33.1666C98.9908 33.2948 98.9938 33.4275 99.0283 33.5545L107.343 64.1779C107.508 64.7865 107.885 65.3263 108.415 65.7118C108.945 66.0973 109.598 66.3066 110.269 66.3066H115.745C116.176 66.3066 116.594 66.1706 116.932 65.9206C117.27 65.6705 117.508 65.3211 117.607 64.929L121.029 51.3768C121.255 50.4819 121.628 49.0324 121.838 48.1342C122.386 45.8021 122.772 43.6122 123.192 40.7817H123.398C123.811 44.0628 124.327 46.7166 125.462 51.3005L129.125 66.3066H136.556C137.087 66.3066 137.602 66.1413 138.022 65.8368C138.441 65.5323 138.74 65.1059 138.871 64.625L147.291 33.7844C147.333 33.6303 147.337 33.4692 147.303 33.3135C147.268 33.1578 147.196 33.0116 147.091 32.8859C146.987 32.7603 146.853 32.6587 146.701 32.5888C146.548 32.5188 146.38 32.4825 146.21 32.4825H141.488C141.009 32.4825 140.544 32.634 140.169 32.9123C139.794 33.1906 139.531 33.5794 139.422 34.0155L136.723 44.834C136.43 46.007 135.948 47.9071 135.676 49.0843C134.893 52.4638 134.395 55.4772 134.181 57.9591H133.975C133.616 55.2322 133.218 53.2713 132.51 50.3638C132.324 49.6014 132.017 48.3669 131.828 47.6052L128.5 34.1286C128.384 33.6606 128.103 33.2431 127.701 32.9442C127.299 32.6453 126.8 32.4825 126.287 32.4825H120.862C120.265 32.4825 119.686 32.6734 119.221 33.0236C118.756 33.3738 118.433 33.8621 118.305 34.4077L114.886 49.0327C114.163 52.2173 113.596 54.1473 113.132 58.0557H112.925ZM160.751 47.5369C162.041 43.2425 162.815 40.4922 163.434 37.5971H163.64C164.259 40.5887 164.982 43.0495 166.375 47.7299L167.768 52.4585H159.255L160.751 47.5369ZM157.422 34.6394L147.182 66.3066H152.029C152.921 66.3066 153.787 66.0339 154.497 65.53C155.207 65.0261 155.722 64.3188 155.962 63.516L157.449 58.5382H169.573L170.945 63.2309C171.203 64.1144 171.764 64.894 172.543 65.4498C173.321 66.0056 174.274 66.3066 175.253 66.3066H180.098L169.877 34.8448C169.655 34.1614 169.204 33.5628 168.59 33.1375C167.976 32.7121 167.233 32.4825 166.469 32.4825H160.529C159.833 32.4825 159.154 32.6922 158.595 33.0807C158.035 33.4691 157.624 34.0156 157.422 34.6394ZM191.195 66.3066H195.524V38.5622H199.365C200.727 38.5622 202.034 38.056 202.997 37.155C203.96 36.2541 204.501 35.0321 204.501 33.758V32.4825H178.654V38.5622H187.631V62.9735C187.631 63.4112 187.723 63.8446 187.902 64.249C188.081 64.6534 188.344 65.0208 188.675 65.3303C189.006 65.6399 189.398 65.8854 189.831 66.0529C190.263 66.2204 190.727 66.3066 191.195 66.3066ZM215.13 49.1292C215.13 40.7335 217.864 38.1279 221.733 38.1279C226.119 38.1279 228.853 41.1195 228.853 49.5634C228.853 57.9109 226.325 60.6612 222.198 60.6612C217.812 60.6612 215.13 57.6697 215.13 49.1292ZM237.005 49.2257C237.005 36.6321 231.175 32 222.198 32C213.427 32 207.03 37.3076 207.03 49.6117C207.03 62.2535 212.705 66.7892 221.733 66.7892C230.556 66.7892 237.005 61.5297 237.005 49.2257ZM257.745 60.613C253.101 60.613 251.296 57.9592 251.296 53.134V34.4532C251.296 33.9305 251.074 33.4293 250.679 33.0597C250.283 32.6901 249.747 32.4825 249.189 32.4825H245.509C244.95 32.4825 244.414 32.6901 244.019 33.0597C243.624 33.4293 243.402 33.9305 243.402 34.4532V54.5816C243.402 61.5297 247.323 66.7892 256.661 66.7892C264.658 66.7892 271.417 63.315 271.417 52.9893V34.4055C271.417 34.153 271.364 33.9029 271.26 33.6696C271.157 33.4363 271.005 33.2243 270.815 33.0457C270.624 32.8671 270.397 32.7255 270.147 32.6289C269.898 32.5322 269.631 32.4825 269.361 32.4825H263.523V54.0508C263.523 58.7312 261.511 60.613 257.745 60.613Z" fill="#1C759E"/>
</svg>
