<svg xmlns="http://www.w3.org/2000/svg" xmlns:xlink="http://www.w3.org/1999/xlink" width="260" zoomAndPan="magnify" viewBox="0 0 194.87999 71.249999" height="95" preserveAspectRatio="xMidYMid meet" version="1.0"><defs><g/><clipPath id="19b28b8bfb"><path d="M 0.957031 0 L 193.804688 0 L 193.804688 70.507812 L 0.957031 70.507812 Z M 0.957031 0 " clip-rule="nonzero"/></clipPath><clipPath id="07c8ef3a11"><path d="M 15.613281 10.179688 L 65.902344 10.179688 L 65.902344 60.472656 L 15.613281 60.472656 Z M 15.613281 10.179688 " clip-rule="nonzero"/></clipPath><clipPath id="f3006da2e4"><path d="M 40.757812 10.179688 C 26.871094 10.179688 15.613281 21.4375 15.613281 35.324219 C 15.613281 49.214844 26.871094 60.472656 40.757812 60.472656 C 54.644531 60.472656 65.902344 49.214844 65.902344 35.324219 C 65.902344 21.4375 54.644531 10.179688 40.757812 10.179688 Z M 40.757812 10.179688 " clip-rule="nonzero"/></clipPath><clipPath id="fcf44518bd"><path d="M 27.65625 22.222656 L 53.640625 22.222656 L 53.640625 48.207031 L 27.65625 48.207031 Z M 27.65625 22.222656 " clip-rule="nonzero"/></clipPath><clipPath id="cc94a36d35"><path d="M 12.28125 6.777344 L 68.582031 6.777344 L 68.582031 63.078125 L 12.28125 63.078125 Z M 12.28125 6.777344 " clip-rule="nonzero"/></clipPath></defs><g clip-path="url(#19b28b8bfb)"><path fill="#ffffff" d="M 0.957031 0 L 193.925781 0 L 193.925781 70.507812 L 0.957031 70.507812 Z M 0.957031 0 " fill-opacity="1" fill-rule="nonzero"/><path fill="#ffffff" d="M 0.957031 0 L 193.925781 0 L 193.925781 70.507812 L 0.957031 70.507812 Z M 0.957031 0 " fill-opacity="1" fill-rule="nonzero"/></g><g clip-path="url(#07c8ef3a11)"><g clip-path="url(#f3006da2e4)"><path fill="#231f20" d="M 15.613281 10.179688 L 65.902344 10.179688 L 65.902344 60.472656 L 15.613281 60.472656 Z M 15.613281 10.179688 " fill-opacity="1" fill-rule="nonzero"/></g></g><g clip-path="url(#fcf44518bd)"><path fill="#ffffff" d="M 30.773438 39.445312 C 30.613281 39.355469 30.457031 39.265625 30.308594 39.167969 C 28.613281 38.097656 27.65625 36.746094 27.65625 35.316406 C 27.65625 33.886719 28.613281 32.535156 30.308594 31.464844 C 30.457031 31.367188 30.613281 31.277344 30.773438 31.183594 C 30.726562 31.007812 30.679688 30.832031 30.640625 30.660156 C 30.203125 28.703125 30.480469 27.070312 31.488281 26.058594 C 32.5 25.046875 34.136719 24.769531 36.089844 25.210938 C 36.261719 25.25 36.4375 25.292969 36.617188 25.34375 C 36.707031 25.183594 36.800781 25.027344 36.894531 24.875 C 37.96875 23.183594 39.316406 22.222656 40.746094 22.222656 C 42.179688 22.222656 43.527344 23.183594 44.601562 24.875 C 44.695312 25.027344 44.789062 25.183594 44.878906 25.34375 C 45.058594 25.292969 45.230469 25.25 45.40625 25.210938 C 47.359375 24.769531 48.996094 25.046875 50.003906 26.058594 C 51.015625 27.070312 51.292969 28.703125 50.855469 30.660156 C 50.816406 30.832031 50.769531 31.007812 50.722656 31.183594 C 50.882812 31.277344 51.039062 31.367188 51.1875 31.464844 C 52.878906 32.535156 53.839844 33.886719 53.839844 35.316406 C 53.839844 36.746094 52.878906 38.097656 51.1875 39.167969 C 51.039062 39.265625 50.882812 39.355469 50.722656 39.445312 C 50.769531 39.625 50.816406 39.800781 50.855469 39.972656 C 51.292969 41.929688 51.015625 43.5625 50.003906 44.574219 C 48.996094 45.585938 47.359375 45.863281 45.40625 45.421875 C 45.230469 45.382812 45.058594 45.339844 44.878906 45.289062 C 44.789062 45.449219 44.695312 45.605469 44.601562 45.753906 C 43.527344 47.449219 42.179688 48.410156 40.746094 48.410156 C 39.316406 48.410156 37.96875 47.449219 36.894531 45.753906 C 36.800781 45.605469 36.707031 45.449219 36.617188 45.289062 C 36.4375 45.339844 36.261719 45.382812 36.089844 45.421875 C 34.136719 45.863281 32.5 45.585938 31.488281 44.574219 C 30.480469 43.5625 30.203125 41.929688 30.640625 39.972656 C 30.679688 39.800781 30.726562 39.625 30.773438 39.445312 Z M 31.066406 32.085938 C 30.976562 32.136719 30.890625 32.191406 30.804688 32.246094 C 29.429688 33.113281 28.578125 34.15625 28.578125 35.316406 C 28.578125 36.476562 29.429688 37.519531 30.804688 38.386719 C 30.890625 38.441406 30.976562 38.496094 31.066406 38.546875 C 31.441406 37.515625 31.984375 36.425781 32.679688 35.316406 C 31.984375 34.207031 31.441406 33.113281 31.066406 32.085938 Z M 36.1875 26.183594 C 36.085938 26.160156 35.988281 26.132812 35.886719 26.113281 C 34.304688 25.757812 32.964844 25.890625 32.144531 26.710938 C 31.324219 27.53125 31.1875 28.871094 31.542969 30.457031 C 31.566406 30.554688 31.589844 30.65625 31.617188 30.753906 C 32.613281 30.292969 33.769531 29.90625 35.042969 29.609375 C 35.335938 28.335938 35.726562 27.179688 36.1875 26.183594 Z M 43.980469 25.632812 C 43.925781 25.542969 43.875 25.457031 43.820312 25.371094 C 42.949219 24 41.90625 23.148438 40.746094 23.148438 C 39.589844 23.148438 38.546875 24 37.675781 25.371094 C 37.621094 25.457031 37.570312 25.542969 37.515625 25.632812 C 38.546875 26.011719 39.640625 26.554688 40.746094 27.246094 C 41.855469 26.554688 42.949219 26.011719 43.980469 25.632812 Z M 49.878906 30.753906 C 49.90625 30.65625 49.929688 30.554688 49.953125 30.457031 C 50.308594 28.871094 50.171875 27.53125 49.351562 26.710938 C 48.53125 25.890625 47.191406 25.757812 45.609375 26.113281 C 45.507812 26.132812 45.410156 26.160156 45.308594 26.183594 C 45.769531 27.179688 46.160156 28.335938 46.453125 29.609375 C 47.726562 29.90625 48.882812 30.292969 49.878906 30.753906 Z M 50.429688 38.546875 C 50.519531 38.496094 50.605469 38.441406 50.691406 38.386719 C 52.066406 37.519531 52.914062 36.476562 52.914062 35.316406 C 52.914062 34.15625 52.066406 33.113281 50.691406 32.246094 C 50.605469 32.191406 50.519531 32.136719 50.429688 32.085938 C 50.050781 33.113281 49.507812 34.207031 48.816406 35.316406 C 49.507812 36.425781 50.050781 37.515625 50.429688 38.546875 Z M 45.308594 44.449219 C 45.410156 44.472656 45.507812 44.496094 45.609375 44.519531 C 47.191406 44.875 48.53125 44.738281 49.351562 43.921875 C 50.171875 43.101562 50.308594 41.761719 49.953125 40.175781 C 49.929688 40.078125 49.90625 39.976562 49.878906 39.875 C 48.882812 40.339844 47.726562 40.726562 46.453125 41.023438 C 46.160156 42.296875 45.769531 43.453125 45.308594 44.449219 Z M 37.515625 44.996094 C 37.570312 45.085938 37.621094 45.175781 37.675781 45.261719 C 38.546875 46.632812 39.589844 47.484375 40.746094 47.484375 C 41.90625 47.484375 42.949219 46.632812 43.820312 45.261719 C 43.875 45.175781 43.925781 45.085938 43.980469 44.996094 C 42.949219 44.621094 41.855469 44.078125 40.746094 43.382812 C 39.640625 44.078125 38.546875 44.621094 37.515625 44.996094 Z M 31.617188 39.875 C 31.589844 39.976562 31.566406 40.078125 31.542969 40.175781 C 31.1875 41.761719 31.324219 43.101562 32.144531 43.921875 C 32.964844 44.738281 34.304688 44.875 35.886719 44.519531 C 35.988281 44.496094 36.085938 44.472656 36.1875 44.449219 C 35.726562 43.453125 35.335938 42.296875 35.042969 41.023438 C 33.769531 40.726562 32.613281 40.339844 31.617188 39.875 Z M 34.835938 30.609375 C 33.742188 30.882812 32.75 31.234375 31.890625 31.648438 C 32.207031 32.546875 32.660156 33.496094 33.238281 34.464844 C 33.636719 33.890625 34.070312 33.316406 34.542969 32.746094 C 34.613281 32.007812 34.710938 31.292969 34.835938 30.609375 Z M 33.238281 36.167969 C 32.660156 37.136719 32.207031 38.085938 31.890625 38.984375 C 32.75 39.398438 33.742188 39.746094 34.835938 40.023438 C 34.710938 39.339844 34.613281 38.625 34.542969 37.886719 C 34.070312 37.316406 33.636719 36.742188 33.238281 36.167969 Z M 39.898438 27.808594 C 38.929688 27.230469 37.976562 26.777344 37.078125 26.457031 C 36.667969 27.320312 36.316406 28.3125 36.039062 29.40625 C 36.726562 29.277344 37.441406 29.179688 38.175781 29.109375 C 38.746094 28.636719 39.324219 28.203125 39.898438 27.808594 Z M 45.457031 29.40625 C 45.179688 28.3125 44.828125 27.320312 44.417969 26.457031 C 43.515625 26.777344 42.566406 27.230469 41.597656 27.808594 C 42.171875 28.203125 42.746094 28.636719 43.320312 29.109375 C 44.054688 29.179688 44.769531 29.277344 45.457031 29.40625 Z M 48.257812 34.464844 C 48.835938 33.496094 49.289062 32.546875 49.605469 31.648438 C 48.746094 31.234375 47.753906 30.882812 46.660156 30.609375 C 46.785156 31.292969 46.882812 32.007812 46.953125 32.746094 C 47.425781 33.316406 47.859375 33.890625 48.257812 34.464844 Z M 46.660156 40.023438 C 47.753906 39.746094 48.746094 39.398438 49.605469 38.984375 C 49.289062 38.085938 48.835938 37.136719 48.257812 36.167969 C 47.859375 36.742188 47.425781 37.316406 46.953125 37.886719 C 46.882812 38.625 46.785156 39.339844 46.660156 40.023438 Z M 41.597656 42.824219 C 42.566406 43.402344 43.515625 43.855469 44.417969 44.175781 C 44.828125 43.3125 45.179688 42.320312 45.457031 41.226562 C 44.769531 41.351562 44.054688 41.453125 43.320312 41.523438 C 42.746094 41.996094 42.171875 42.429688 41.597656 42.824219 Z M 36.039062 41.226562 C 36.316406 42.320312 36.667969 43.3125 37.078125 44.175781 C 37.976562 43.855469 38.929688 43.402344 39.898438 42.824219 C 39.324219 42.429688 38.746094 41.996094 38.175781 41.523438 C 37.441406 41.453125 36.726562 41.351562 36.039062 41.226562 Z M 34.4375 34.375 C 34.203125 34.6875 33.984375 35.003906 33.777344 35.316406 C 33.984375 35.628906 34.203125 35.945312 34.4375 36.257812 C 34.425781 35.945312 34.421875 35.632812 34.421875 35.316406 C 34.421875 35 34.425781 34.6875 34.4375 34.375 Z M 35.816406 30.386719 C 35.742188 30.753906 35.675781 31.132812 35.621094 31.519531 C 35.832031 31.292969 36.050781 31.066406 36.273438 30.84375 C 36.5 30.617188 36.722656 30.402344 36.949219 30.1875 C 36.566406 30.246094 36.1875 30.3125 35.816406 30.386719 Z M 35.621094 39.113281 C 35.675781 39.5 35.742188 39.878906 35.816406 40.246094 C 36.1875 40.320312 36.566406 40.386719 36.949219 40.445312 C 36.722656 40.230469 36.5 40.011719 36.273438 39.789062 C 36.050781 39.566406 35.832031 39.339844 35.621094 39.113281 Z M 40.746094 28.34375 C 40.433594 28.550781 40.121094 28.773438 39.808594 29.003906 C 40.117188 28.996094 40.429688 28.988281 40.746094 28.988281 C 41.0625 28.988281 41.378906 28.996094 41.6875 29.003906 C 41.375 28.773438 41.0625 28.550781 40.746094 28.34375 Z M 45.675781 30.386719 C 45.308594 30.3125 44.929688 30.246094 44.542969 30.1875 C 44.773438 30.402344 44.996094 30.617188 45.222656 30.84375 C 45.445312 31.066406 45.664062 31.292969 45.875 31.519531 C 45.816406 31.132812 45.75 30.753906 45.675781 30.386719 Z M 47.71875 35.316406 C 47.511719 35.003906 47.289062 34.6875 47.058594 34.375 C 47.070312 34.6875 47.074219 35 47.074219 35.316406 C 47.074219 35.632812 47.070312 35.945312 47.058594 36.257812 C 47.289062 35.945312 47.511719 35.628906 47.71875 35.316406 Z M 45.675781 40.246094 C 45.75 39.878906 45.816406 39.5 45.875 39.113281 C 45.664062 39.339844 45.445312 39.566406 45.222656 39.789062 C 44.996094 40.011719 44.773438 40.230469 44.542969 40.445312 C 44.929688 40.386719 45.308594 40.320312 45.675781 40.246094 Z M 40.746094 42.289062 C 41.0625 42.078125 41.375 41.859375 41.6875 41.625 C 41.378906 41.636719 41.0625 41.644531 40.746094 41.644531 C 40.429688 41.644531 40.117188 41.636719 39.808594 41.625 C 40.121094 41.859375 40.433594 42.078125 40.746094 42.289062 Z M 38.753906 36.246094 L 38.0625 37.941406 L 37.226562 37.601562 L 39.238281 32.664062 L 40.074219 32.664062 L 42.085938 37.601562 L 41.253906 37.941406 L 40.5625 36.246094 Z M 40.195312 35.34375 L 39.65625 34.03125 L 39.121094 35.34375 Z M 42.550781 32.589844 L 43.453125 32.589844 L 43.453125 37.851562 L 42.550781 37.851562 Z M 42.550781 32.589844 " fill-opacity="1" fill-rule="evenodd"/></g><g clip-path="url(#cc94a36d35)"><path fill="#ffffff" d="M 41.441406 22.011719 C 41.53125 22.804688 41.683594 23.589844 41.902344 24.359375 C 42.121094 25.128906 42.40625 25.875 42.75 26.597656 C 43.097656 27.316406 43.5 28.003906 43.964844 28.65625 C 44.425781 29.3125 44.941406 29.921875 45.507812 30.488281 C 46.074219 31.054688 46.683594 31.566406 47.335938 32.03125 C 47.988281 32.492188 48.675781 32.898438 49.398438 33.242188 C 50.121094 33.589844 50.867188 33.871094 51.636719 34.089844 C 52.40625 34.3125 53.1875 34.464844 53.984375 34.550781 C 57.832031 34.972656 62.800781 35.246094 69.214844 35.246094 C 62.800781 35.246094 57.832031 35.519531 53.984375 35.941406 C 53.1875 36.027344 52.40625 36.179688 51.636719 36.398438 C 50.867188 36.617188 50.121094 36.902344 49.398438 37.246094 C 48.675781 37.59375 47.988281 38 47.335938 38.460938 C 46.683594 38.921875 46.074219 39.4375 45.507812 40.003906 C 44.941406 40.570312 44.425781 41.179688 43.964844 41.832031 C 43.5 42.484375 43.097656 43.171875 42.75 43.894531 C 42.40625 44.617188 42.121094 45.363281 41.902344 46.132812 C 41.683594 46.902344 41.53125 47.683594 41.441406 48.480469 C 41.019531 52.328125 40.75 57.296875 40.75 63.710938 C 40.75 57.296875 40.476562 52.328125 40.054688 48.480469 C 39.96875 47.683594 39.8125 46.902344 39.59375 46.132812 C 39.375 45.363281 39.09375 44.617188 38.746094 43.894531 C 38.398438 43.171875 37.996094 42.484375 37.53125 41.832031 C 37.070312 41.179688 36.554688 40.570312 35.992188 40.003906 C 35.425781 39.4375 34.816406 38.921875 34.160156 38.460938 C 33.507812 38 32.820312 37.59375 32.097656 37.246094 C 31.378906 36.902344 30.632812 36.617188 29.863281 36.398438 C 29.09375 36.179688 28.308594 36.027344 27.515625 35.941406 C 23.664062 35.519531 18.695312 35.246094 12.28125 35.246094 C 18.695312 35.246094 23.664062 34.972656 27.515625 34.550781 C 28.308594 34.464844 29.09375 34.3125 29.863281 34.089844 C 30.632812 33.871094 31.378906 33.589844 32.097656 33.242188 C 32.820312 32.898438 33.507812 32.492188 34.160156 32.03125 C 34.816406 31.566406 35.425781 31.054688 35.992188 30.488281 C 36.554688 29.921875 37.070312 29.3125 37.53125 28.65625 C 37.996094 28.003906 38.398438 27.316406 38.746094 26.597656 C 39.09375 25.875 39.375 25.128906 39.59375 24.359375 C 39.8125 23.589844 39.96875 22.804688 40.054688 22.011719 C 40.476562 18.160156 40.75 13.191406 40.75 6.777344 C 40.75 13.191406 41.019531 18.160156 41.441406 22.011719 Z M 41.441406 22.011719 " fill-opacity="1" fill-rule="nonzero"/></g><g fill="#231f20" fill-opacity="1"><g transform="translate(75.372642, 49.195986)"><g><path d="M 3.53125 0 L 3.53125 -29.015625 L 20.671875 -29.015625 L 20.671875 -25 L 7.6875 -25 L 7.6875 -16.484375 L 19.203125 -16.484375 L 19.203125 -12.625 L 7.6875 -12.625 L 7.6875 0 Z M 3.53125 0 "/></g></g></g><g fill="#231f20" fill-opacity="1"><g transform="translate(96.956427, 49.195986)"><g><path d="M 2.84375 -27.953125 C 2.84375 -28.722656 3.109375 -29.296875 3.640625 -29.671875 C 4.171875 -30.054688 4.753906 -30.25 5.390625 -30.25 C 6.015625 -30.25 6.582031 -30.0625 7.09375 -29.6875 C 7.601562 -29.320312 7.859375 -28.742188 7.859375 -27.953125 C 7.859375 -27.179688 7.597656 -26.597656 7.078125 -26.203125 C 6.554688 -25.804688 5.976562 -25.609375 5.34375 -25.609375 C 4.738281 -25.609375 4.171875 -25.804688 3.640625 -26.203125 C 3.109375 -26.597656 2.84375 -27.179688 2.84375 -27.953125 Z M 3.328125 -22.484375 L 3.328125 0 L 7.359375 0 L 7.359375 -22.484375 Z M 3.328125 -22.484375 "/></g></g></g><g fill="#231f20" fill-opacity="1"><g transform="translate(108.015548, 49.195986)"><g><path d="M 7.109375 -19.484375 C 7.929688 -20.691406 8.925781 -21.503906 10.09375 -21.921875 C 11.257812 -22.347656 12.539062 -22.5625 13.9375 -22.5625 C 16.207031 -22.5625 18.046875 -22.125 19.453125 -21.25 C 20.867188 -20.375 21.910156 -19.140625 22.578125 -17.546875 C 23.253906 -15.960938 23.59375 -14.101562 23.59375 -11.96875 L 23.59375 0 L 19.609375 0 L 19.609375 -11.921875 C 19.609375 -13.316406 19.445312 -14.546875 19.125 -15.609375 C 18.8125 -16.679688 18.222656 -17.515625 17.359375 -18.109375 C 16.503906 -18.703125 15.265625 -19 13.640625 -19 C 12.242188 -19 11.0625 -18.6875 10.09375 -18.0625 C 9.125 -17.445312 8.382812 -16.617188 7.875 -15.578125 C 7.363281 -14.535156 7.109375 -13.375 7.109375 -12.09375 L 7.109375 0 L 3.078125 0 L 3.078125 -22.234375 L 7.109375 -22.234375 Z M 7.109375 -19.484375 "/></g></g></g><g fill="#231f20" fill-opacity="1"><g transform="translate(134.656103, 49.195986)"><g><path d="M 7.109375 -7.28125 L 4.3125 0 L -0.171875 0 L 11.390625 -29.140625 L 14.421875 -29.140625 L 25.984375 0 L 21.546875 0 L 18.78125 -7.28125 Z M 17.265625 -11.1875 L 12.953125 -22.53125 L 8.640625 -11.1875 Z M 17.265625 -11.1875 "/></g></g></g><g fill="#231f20" fill-opacity="1"><g transform="translate(160.721091, 49.195986)"><g><path d="M 13.03125 -25.203125 L 13.03125 -3.859375 L 18.375 -3.859375 L 18.375 0 L 3.53125 0 L 3.53125 -3.859375 L 8.875 -3.859375 L 8.875 -25.203125 L 3.53125 -25.203125 L 3.53125 -29.015625 L 18.375 -29.015625 L 18.375 -25.203125 Z M 13.03125 -25.203125 "/></g></g></g></svg>