<svg width="15" height="17" viewBox="0 0 15 17" fill="none" xmlns="http://www.w3.org/2000/svg">
<path d="M6.79457 16.514C2.53745 9.93157 1.74725 9.25601 1.74725 6.83685C1.74725 3.52313 4.26584 0.836853 7.37271 0.836853C10.4796 0.836853 12.9982 3.52313 12.9982 6.83685C12.9982 9.25601 12.208 9.93157 7.95084 16.514C7.67147 16.9445 7.07391 16.9444 6.79457 16.514ZM7.37271 9.33685C8.66723 9.33685 9.71664 8.21757 9.71664 6.83685C9.71664 5.45613 8.66723 4.33685 7.37271 4.33685C6.07818 4.33685 5.02877 5.45613 5.02877 6.83685C5.02877 8.21757 6.07818 9.33685 7.37271 9.33685Z" fill="#231f20"/>
</svg>
