<svg width="340" height="328" viewBox="0 0 340 328" fill="none" xmlns="http://www.w3.org/2000/svg">
<path d="M301.866 210.051H178.956C176.759 210.051 174.971 208.326 174.971 206.207V33.4954C174.971 31.3765 176.759 29.6512 178.956 29.6512H301.866C304.062 29.6512 305.85 31.3765 305.85 33.4954V206.207C305.85 208.326 304.062 210.051 301.866 210.051ZM178.956 29.8152C176.854 29.8152 175.141 31.4683 175.141 33.4954V206.207C175.141 208.234 176.854 209.887 178.956 209.887H301.866C303.967 209.887 305.68 208.234 305.68 206.207V33.4954C305.68 31.4683 303.967 29.8152 301.866 29.8152H178.956Z" fill="#E0E0E0"/>
<path d="M160.133 210.051H37.23C35.0336 210.051 33.2452 208.326 33.2452 206.207V33.4954C33.2452 31.3765 35.0336 29.6512 37.23 29.6512H160.133C162.33 29.6512 164.118 31.3765 164.118 33.4954V206.207C164.118 208.326 162.33 210.051 160.133 210.051ZM37.23 29.8152C35.1288 29.8152 33.4152 31.4683 33.4152 33.4954V206.207C33.4152 208.234 35.1288 209.887 37.23 209.887H160.133C162.234 209.887 163.948 208.234 163.948 206.207V33.4954C163.948 31.4683 162.234 29.8152 160.133 29.8152H37.23Z" fill="#E0E0E0"/>
<path d="M340 250.113H0V250.277H340V250.113Z" fill="#E0E0E0"/>
<path d="M46.0564 259.468H35.1356V259.632H46.0564V259.468Z" fill="#E0E0E0"/>
<path d="M152.238 257.69H115.838V257.854H152.238V257.69Z" fill="#E0E0E0"/>
<path d="M71.3864 265.562H46.7364V265.726H71.3864V265.562Z" fill="#E0E0E0"/>
<path d="M286.647 257.605H257.278V257.769H286.647V257.605Z" fill="#E0E0E0"/>
<path d="M297.01 257.605H292.706V257.769H297.01V257.605Z" fill="#E0E0E0"/>
<path d="M251.668 261.692H215.023V261.856H251.668V261.692Z" fill="#E0E0E0"/>
<path d="M47.6544 228.839C47.6476 228.609 46.852 205.938 43.0304 202.356C39.3108 198.873 35.0472 202.225 34.8636 202.369L34.4828 201.923C34.5304 201.884 39.3448 198.092 43.4452 201.936C47.4368 205.682 48.2188 227.875 48.2528 228.813L47.6544 228.832V228.839Z" fill="#E0E0E0"/>
<path d="M47.9808 233.3C47.9536 233.031 45.3696 206.082 55.5696 194.793L56.0184 195.173C45.9884 206.279 48.5452 232.978 48.5724 233.247L47.974 233.306L47.9808 233.3Z" fill="#E0E0E0"/>
<path d="M47.6068 230.446L47.0084 230.407C47.0288 230.099 49.0076 199.778 41.5208 193.14L41.9288 192.713C49.6196 199.536 47.6952 229.187 47.6068 230.446Z" fill="#E0E0E0"/>
<path d="M48.5792 230.433H47.9808C47.9876 229.593 48.2256 209.946 54.0124 206.745C55.2976 206.03 56.5556 205.912 57.7524 206.391C61.2476 207.788 62.9816 213.79 63.0564 214.046L62.4784 214.197C62.4648 214.138 60.7512 208.208 57.5212 206.922C56.5012 206.515 55.42 206.627 54.3048 207.244C48.8172 210.281 48.5724 230.23 48.5724 230.433H48.5792Z" fill="#E0E0E0"/>
<path d="M46.3284 230.446L45.73 230.413C45.7368 230.256 46.6004 214.886 42.3028 209.467C41.2624 208.155 40.1268 207.532 38.9368 207.611C36.1216 207.801 33.7552 211.776 33.7348 211.816L33.2112 211.534C33.3132 211.357 35.7544 207.244 38.896 207.034C40.3036 206.935 41.6092 207.637 42.7788 209.113C47.2124 214.696 46.3692 229.797 46.3284 230.44V230.446Z" fill="#E0E0E0"/>
<path d="M47.2736 232.532C47.158 231.043 44.4652 195.941 49.2048 189.755L49.6876 190.096C45.0772 196.111 47.8448 232.119 47.872 232.486L47.2736 232.532Z" fill="#E0E0E0"/>
<path d="M59.0444 209.946C59.0444 209.946 56.202 210.956 57.0452 213.344C57.8884 215.732 66.8848 219.662 66.8848 219.662C66.8848 219.662 70.652 216.329 67.1908 210.917C63.7296 205.499 59.1192 208.241 59.0444 209.946Z" fill="#EBEBEB"/>
<path d="M46.682 205.4C46.682 205.4 49.708 205.276 49.8848 207.795C50.0548 210.314 43.3228 217.28 43.3228 217.28C43.3228 217.28 38.5152 215.608 39.5488 209.323C40.5824 203.039 45.9272 203.852 46.682 205.4Z" fill="#EBEBEB"/>
<path d="M44.1184 193.349C44.1184 193.349 46.138 193.14 45.9748 191.952C45.8116 190.765 38.1276 187.714 33.592 192.648C33.592 192.648 36.4956 197.456 40.6912 197.522C44.8868 197.587 44.1184 193.343 44.1184 193.343V193.349Z" fill="#EBEBEB"/>
<path d="M47.8856 190.47C47.8856 190.47 46.0564 191.322 45.5464 190.233C45.0364 189.144 49.8848 182.63 56.44 184.507C56.44 184.507 56.6168 190.069 53.0876 192.267C49.5584 194.465 47.8924 190.47 47.8924 190.47H47.8856Z" fill="#EBEBEB"/>
<path d="M38.3248 208.988C38.3248 208.988 39.7188 207.906 38.216 207.375C36.7132 206.843 29.3352 206.994 29.2536 214.046C29.2536 214.046 37.8488 215.424 38.9096 212.741C39.9704 210.058 38.3248 208.995 38.3248 208.995V208.988Z" fill="#EBEBEB"/>
<path d="M55.8484 193.172C55.8484 193.172 54.4544 192.09 55.9572 191.559C57.46 191.027 64.838 191.178 64.9128 198.23C64.9128 198.23 56.3176 199.608 55.2568 196.925C54.196 194.242 55.8416 193.179 55.8416 193.179L55.8484 193.172Z" fill="#EBEBEB"/>
<path d="M51.306 198.853C51.306 198.853 51.1836 197.535 52.2852 198.053C53.3868 198.571 57.2356 202.573 53.2508 206.371C53.2508 206.371 47.8856 202.533 48.8512 200.539C49.8168 198.545 51.306 198.853 51.306 198.853Z" fill="#EBEBEB"/>
<path d="M37.0804 200.736C37.0804 200.736 37.91 199.68 36.6928 199.555C35.4756 199.424 30.0084 200.834 31.28 206.096C31.28 206.096 37.9372 205.61 38.2228 203.426C38.5084 201.241 37.0804 200.736 37.0804 200.736Z" fill="#EBEBEB"/>
<path d="M60.1596 249.975H37.3048L34.8432 225.835H62.6212L60.1596 249.975Z" fill="#F0F0F0"/>
<path d="M63.2604 223.171H33.0412V228.498H63.2604V223.171Z" fill="#E6E6E6"/>
<path d="M312.909 115.344H247.479V116.407H312.909V115.344Z" fill="#E0E0E0"/>
<path d="M288.966 136.579C287.409 151.51 288.572 162.957 289.156 176.628C289.775 191.126 287.28 205.387 287.694 220.718C288.633 220.147 289.476 219.865 290.326 220.718C291.564 221.551 292.638 221.82 293.597 220.718C294.855 220.718 295.712 220.14 296.412 220.718C297.35 208.811 298.608 196.328 297.35 188.193C297.174 186.534 302.348 186.98 302.457 184.644C303.001 173.899 300.682 154.186 298.758 136.697C298.758 136.573 298.744 136.448 298.71 136.323L296.548 127.441C296.439 126.975 296.215 126.542 295.909 126.175L295.324 125.466L294.386 120.934V115.344H293.842V120.901L292.162 123.485L286.933 127.972L288.973 136.586L288.966 136.579Z" fill="#E0E0E0"/>
<path d="M254.327 127.474L252.77 135.536C252.77 135.608 252.77 135.674 252.77 135.746L250.152 220.711C251.09 218.901 251.926 219.222 252.783 220.711C253.946 222.181 255.034 222.24 256.054 220.711C257.36 219.373 258.189 219.76 258.869 220.711L259.808 188.187L261.215 136.691C261.236 136.566 261.236 136.441 261.215 136.317L259.053 127.435C258.944 126.969 258.72 126.536 258.414 126.168L257.829 125.46L256.89 120.927V115.338H256.346V120.894L255.775 125.572L254.946 126.477C254.64 126.746 254.429 127.087 254.327 127.474Z" fill="#E0E0E0"/>
<path d="M265.356 127.474L263.799 135.536C263.799 135.608 263.799 135.674 263.799 135.746C261.467 162.137 260.787 190.706 261.181 220.711C262.12 218.901 262.949 219.222 263.799 220.711C264.962 222.181 266.05 222.24 267.077 220.711C268.376 219.373 269.198 219.76 269.892 220.711C270.83 208.805 272.102 196.321 270.83 188.187C269.892 178.917 274.584 157.991 272.238 136.691C272.252 136.566 272.252 136.441 272.238 136.317L270.069 127.435C269.96 126.969 269.736 126.536 269.43 126.168L268.845 125.46L267.906 120.927V115.338H267.362V120.894L266.696 125.572L265.866 126.477C265.601 126.759 265.424 127.1 265.35 127.474H265.356Z" fill="#E0E0E0"/>
<path d="M300.914 127.474L299.356 135.536C299.356 135.608 299.356 135.674 299.356 135.746C297.024 162.137 296.344 190.706 296.738 220.711C297.677 218.901 298.506 219.222 299.356 220.711C300.519 222.181 301.607 222.24 302.634 220.711C303.933 219.373 304.756 219.76 305.449 220.711C306.388 208.805 307.659 196.321 306.388 188.187C305.449 178.917 310.141 157.991 307.795 136.691C307.809 136.566 307.809 136.441 307.795 136.317L305.626 127.435C305.51 126.975 305.3 126.542 304.994 126.168L304.409 125.46L303.47 120.927V115.338H302.926V120.894L302.355 125.572L301.526 126.477C301.233 126.752 301.016 127.093 300.907 127.474H300.914Z" fill="#E0E0E0"/>
<path d="M278.623 127.474L277.025 135.536V135.746C272.904 149.24 275.298 163.009 275.883 176.628C276.495 191.126 274.006 205.387 274.421 220.718C275.359 220.147 276.196 219.865 277.039 220.718C278.276 221.551 279.351 221.82 280.31 220.718C281.568 220.718 282.424 220.14 283.125 220.718C284.063 208.811 285.321 196.328 284.063 188.193C283.886 186.534 289.061 186.98 289.17 184.644C289.714 173.899 287.395 154.186 285.471 136.697C285.471 136.573 285.457 136.448 285.423 136.323L283.261 127.441C283.152 126.975 282.928 126.542 282.622 126.175L282.037 125.466L281.098 120.934V115.344H280.554V120.901L279.983 125.578L279.154 126.483C278.882 126.759 278.698 127.106 278.616 127.48L278.623 127.474Z" fill="#E0E0E0"/>
<path d="M169.007 61.0802H119.129V122.364H169.007V61.0802Z" fill="#E6E6E6"/>
<path d="M165.634 65.2195H122.495V118.224H165.634V65.2195Z" fill="#FAFAFA"/>
<path d="M143.704 86.5986C146.277 86.5986 148.362 84.5867 148.362 82.105C148.362 79.6232 146.277 77.6114 143.704 77.6114C141.132 77.6114 139.046 79.6232 139.046 82.105C139.046 84.5867 141.132 86.5986 143.704 86.5986Z" fill="#E0E0E0"/>
<path d="M144.072 88.4616H154.21L149.138 96.9305L144.072 105.406L138.999 96.9305L133.926 88.4616H144.072Z" fill="#E0E0E0"/>
<path d="M231.05 42.253H182.179V102.297H231.05V42.253Z" fill="#E6E6E6"/>
<path d="M227.752 46.307H185.477V98.2426H227.752V46.307Z" fill="#FAFAFA"/>
<path d="M210.82 62.8514C210.82 65.2851 208.78 67.2531 206.258 67.2531C203.735 67.2531 201.695 65.2851 201.695 62.8514C201.695 60.4176 203.735 58.4496 206.258 58.4496C208.78 58.4496 210.82 60.4176 210.82 62.8514Z" fill="#E0E0E0"/>
<path d="M206.611 85.6867H196.676L201.647 77.3818L206.611 69.0834L211.582 77.3818L216.553 85.6867H206.611Z" fill="#E0E0E0"/>
<path d="M89.6308 109.021C90.7612 109.021 91.6776 108.137 91.6776 107.046C91.6776 105.956 90.7612 105.072 89.6308 105.072C88.5004 105.072 87.584 105.956 87.584 107.046C87.584 108.137 88.5004 109.021 89.6308 109.021Z" fill="#E0E0E0"/>
<path d="M41.1128 109.021C42.2432 109.021 43.1596 108.137 43.1596 107.046C43.1596 105.956 42.2432 105.072 41.1128 105.072C39.9824 105.072 39.066 105.956 39.066 107.046C39.066 108.137 39.9824 109.021 41.1128 109.021Z" fill="#E0E0E0"/>
<path d="M318.75 294.144C318.75 296.368 252.151 298.165 170 298.165C87.8492 298.165 21.25 296.361 21.25 294.144C21.25 291.927 87.8492 290.123 170 290.123C252.151 290.123 318.75 291.927 318.75 294.144Z" fill="#F5F5F5"/>
<path d="M320.559 89.8982H239.836V97.0224H320.559V89.8982Z" fill="#263238"/>
<path d="M252.545 77.9393L252.042 77.8541C252.389 75.9779 252.749 74.0427 253.518 72.2321C254.116 70.8086 255.252 68.8537 257.23 67.6533C260.161 65.8755 264.336 66.3019 267.158 68.6635C269.681 70.7758 271.062 74.3117 270.762 77.8934L270.252 77.8541C270.538 74.4232 269.226 71.0382 266.825 69.0309C264.214 66.8398 260.202 66.4265 257.502 68.0665C255.639 69.2014 254.565 71.0579 253.994 72.4158C253.252 74.1805 252.892 76.0894 252.552 77.9393H252.545Z" fill="#263238"/>
<path d="M273.095 81.7048C273.095 86.2312 268.002 89.8982 261.725 89.8982C255.449 89.8982 250.356 86.2312 250.356 81.7048C250.356 79.704 250.906 77.4605 252.566 76.037C254.653 74.2461 258.23 73.5114 261.725 73.5114C264.758 73.5114 268.301 74.0952 270.341 75.4925C272.517 76.9882 273.095 79.3629 273.095 81.7048Z" fill="#165E7E"/>
<path opacity="0.3" d="M273.095 81.7048C273.095 86.2312 268.002 89.8982 261.725 89.8982C255.449 89.8982 250.356 86.2312 250.356 81.7048C250.356 79.704 250.906 77.4605 252.566 76.037C254.653 74.2461 258.23 73.5114 261.725 73.5114C264.758 73.5114 268.301 74.0952 270.341 75.4925C272.517 76.9882 273.095 79.3629 273.095 81.7048Z" fill="black"/>
<path opacity="0.3" d="M251.117 78.7594C251.117 78.7594 254.436 82.6101 261.732 82.6757C269.022 82.7413 272.347 78.7594 272.347 78.7594C272.347 78.7594 269.566 84.0795 261.134 84.0795C254.966 84.0795 251.117 78.7594 251.117 78.7594Z" fill="black"/>
<path d="M261.358 81.4227C261.865 81.4227 262.276 81.0262 262.276 80.5371C262.276 80.048 261.865 79.6515 261.358 79.6515C260.851 79.6515 260.44 80.048 260.44 80.5371C260.44 81.0262 260.851 81.4227 261.358 81.4227Z" fill="#263238"/>
<path d="M312.154 74.2264H287.157V89.5899H312.154V74.2264Z" fill="#165E7E"/>
<path d="M313.732 72.488H285.58V78.9168H313.732V72.488Z" fill="#165E7E"/>
<path opacity="0.3" d="M312.154 78.9758H287.157V80.5634H312.154V78.9758Z" fill="black"/>
<path opacity="0.3" d="M303.355 74.5216H295.963C295.362 74.5216 294.875 74.9915 294.875 75.5712V75.8008C294.875 76.3805 295.362 76.8504 295.963 76.8504H303.355C303.956 76.8504 304.443 76.3805 304.443 75.8008V75.5712C304.443 74.9915 303.956 74.5216 303.355 74.5216Z" fill="black"/>
<path d="M315.493 71.0973C314.493 70.52 313.358 70.087 312.147 69.805C311.766 69.8509 307.945 70.2838 306.197 68.3683C304.361 66.3478 301.764 59.4008 297.561 59.8075C297.588 59.7616 297.622 59.7222 297.65 59.6763C297.622 59.7091 297.588 59.7354 297.561 59.7616C297.432 59.9059 297.337 60.0634 297.262 60.2274C297.044 61.067 296.895 61.9133 296.82 62.7595C296.623 65.6525 296.759 69.5229 297.024 72.4093H297.915L298.03 65.987C298.03 64.1371 300.111 66.2888 300.703 68.2634C301.294 70.2379 302.525 72.4027 308.074 72.4093C314.459 72.4355 317.145 72.2322 315.493 71.0973Z" fill="#263238"/>
<path opacity="0.1" d="M315.493 71.0973C314.493 70.52 313.358 70.087 312.147 69.805C311.766 69.8509 307.945 70.2838 306.197 68.3683C304.361 66.3478 301.764 59.4008 297.561 59.8075C297.588 59.7616 297.622 59.7222 297.65 59.6763C297.622 59.7091 297.588 59.7354 297.561 59.7616C297.432 59.9059 297.337 60.0634 297.262 60.2274C297.044 61.067 296.895 61.9133 296.82 62.7595C296.623 65.6525 296.759 69.5229 297.024 72.4093H297.915L298.03 65.987C298.03 64.1371 300.111 66.2888 300.703 68.2634C301.294 70.2379 302.525 72.4027 308.074 72.4093C314.459 72.4355 317.145 72.2322 315.493 71.0973Z" fill="black"/>
<path d="M304.96 71.0973C303.96 70.52 302.824 70.087 301.614 69.805C301.233 69.8509 297.412 70.2838 295.664 68.3683C293.828 66.3478 291.23 59.4008 287.028 59.8075C287.055 59.7616 287.089 59.7222 287.116 59.6763C287.089 59.7091 287.055 59.7354 287.028 59.7616C286.899 59.9059 286.804 60.0634 286.729 60.2274C286.511 61.067 286.362 61.9133 286.287 62.7595C286.09 65.6525 286.226 69.5229 286.491 72.4093H287.382L287.497 65.987C287.497 64.1371 289.578 66.2888 290.17 68.2634C290.761 70.2379 291.992 72.4027 297.541 72.4093C303.926 72.4355 306.612 72.2322 304.96 71.0973Z" fill="#263238"/>
<path d="M75.3848 71.2416L74.8748 71.2154C74.8952 70.8611 74.9088 70.4872 74.9292 70.1002C75.038 67.568 75.1808 64.4126 76.5884 62.2938C78.0504 60.0962 80.5256 58.7907 83.9528 58.4037C87.0468 58.056 90.1748 59.3221 91.9292 61.6246C93.8468 64.1371 93.9896 67.463 93.976 70.6578H93.466C93.4796 67.5483 93.3436 64.3077 91.5212 61.9198C89.8688 59.755 86.9244 58.5677 84.014 58.8957C80.75 59.263 78.3972 60.4963 77.0168 62.5627C75.6772 64.5701 75.548 67.6533 75.4392 70.1264C75.4256 70.5134 75.4052 70.8939 75.3848 71.2482V71.2416Z" fill="#263238"/>
<path d="M97.5868 85.8376H71.264L73.9772 69.3326H95.4516L97.5868 85.8376Z" fill="#165E7E"/>
<path opacity="0.3" d="M73.9772 69.3326C73.9772 69.3326 77.214 77.5523 84.4288 77.5851C91.6436 77.6114 95.4516 69.3326 95.4516 69.3326C95.4516 69.3326 91.9156 79.1792 84.4288 79.0349C76.942 78.884 73.9772 69.3326 73.9772 69.3326Z" fill="black"/>
<path d="M86.666 74.5938H82.382V75.3941H86.666V74.5938Z" fill="#263238"/>
<path d="M59.9556 82.3411H32.9732C32.2897 82.3411 31.7356 82.8756 31.7356 83.535V84.519C31.7356 85.1784 32.2897 85.713 32.9732 85.713H59.9556C60.6391 85.713 61.1932 85.1784 61.1932 84.519V83.535C61.1932 82.8756 60.6391 82.3411 59.9556 82.3411Z" fill="#165E7E"/>
<path d="M30.8176 80.1698V81.1472C30.8312 81.8229 31.4092 82.3542 32.1096 82.3411H60.0848C60.7852 82.3542 61.3632 81.8163 61.3768 81.1472V80.1698C61.3632 79.4941 60.7852 78.9562 60.0848 78.9693H32.0892C31.3956 78.9693 30.8312 79.5072 30.8176 80.1698Z" fill="#165E7E"/>
<path opacity="0.3" d="M30.8176 80.1698V81.1472C30.8312 81.8229 31.4092 82.3542 32.1096 82.3411H60.0848C60.7852 82.3542 61.3632 81.8163 61.3768 81.1472V80.1698C61.3632 79.4941 60.7852 78.9562 60.0848 78.9693H32.0892C31.3956 78.9693 30.8312 79.5072 30.8176 80.1698Z" fill="black"/>
<path d="M30.906 76.7913V77.7688C30.9264 78.451 31.5112 78.9824 32.2184 78.9627H60.7036C61.4108 78.9824 61.9956 78.4445 62.016 77.7688V76.7913C62.0024 76.1091 61.4176 75.5712 60.7104 75.5843H32.2184C31.5112 75.5646 30.9264 76.1025 30.906 76.7782V76.7913Z" fill="#165E7E"/>
<path d="M31.6404 73.413V74.3904C31.6404 75.053 32.198 75.5909 32.8916 75.5909H59.9488C60.6356 75.5909 61.2 75.053 61.2 74.3904V73.413C61.2 72.7504 60.6356 72.219 59.9488 72.219H32.8508C32.1776 72.2387 31.6472 72.7701 31.6404 73.413Z" fill="#165E7E"/>
<path opacity="0.3" d="M31.6404 73.413V74.3904C31.6404 75.053 32.198 75.5909 32.8916 75.5909H59.9488C60.6356 75.5909 61.2 75.053 61.2 74.3904V73.413C61.2 72.7504 60.6356 72.219 59.9488 72.219H32.8508C32.1776 72.2387 31.6472 72.7701 31.6404 73.413Z" fill="black"/>
<path d="M33.2112 70.0411V71.0186C33.184 71.6418 33.6804 72.1797 34.3264 72.2125H58.5004C59.1532 72.1797 59.6496 71.6418 59.6156 71.0186V70.0411C59.6496 69.4114 59.1532 68.8734 58.5004 68.8341H34.3604C33.7076 68.8538 33.1908 69.3786 33.2112 70.0149V70.0411Z" fill="#165E7E"/>
<path d="M105.958 85.5883H25.2348V92.7125H105.958V85.5883Z" fill="#263238"/>
<path d="M85.7684 279.167H59.5476V292.976H85.7684V279.167Z" fill="#263238"/>
<path opacity="0.7" d="M85.7684 279.167H59.5476V292.976H85.7684V279.167Z" fill="white"/>
<path d="M87.4276 277.613H57.8952V283.392H87.4276V277.613Z" fill="#263238"/>
<path opacity="0.7" d="M87.4276 277.613H57.8952V283.392H87.4276V277.613Z" fill="white"/>
<path opacity="0.3" d="M85.7684 283.438H59.5476V284.861H85.7684V283.438Z" fill="black"/>
<path opacity="0.3" d="M75.2216 281.529H70.7064C70.108 281.529 69.6184 281.063 69.6184 280.479C69.6184 279.902 70.1012 279.43 70.7064 279.43H75.2216C75.82 279.43 76.3096 279.896 76.3096 280.479C76.3096 281.057 75.8268 281.529 75.2216 281.529Z" fill="black"/>
<path d="M60.2412 277.613H25.1328V292.976H60.2412V277.613Z" fill="#165E7E"/>
<path d="M62.4648 275.881H22.916V282.31H62.4648V275.881Z" fill="#165E7E"/>
<path opacity="0.3" d="M60.2412 282.362H25.1328V283.95H60.2412V282.362Z" fill="black"/>
<path opacity="0.3" d="M46.4916 277.914H39.712C39.1111 277.914 38.624 278.384 38.624 278.964V279.194C38.624 279.773 39.1111 280.243 39.712 280.243H46.4916C47.0925 280.243 47.5796 279.773 47.5796 279.194V278.964C47.5796 278.384 47.0925 277.914 46.4916 277.914Z" fill="black"/>
<path d="M60.2412 259.441H25.1328V275.881H60.2412V259.441Z" fill="#263238"/>
<path d="M62.4648 257.585H22.916V264.466H62.4648V257.585Z" fill="#263238"/>
<path opacity="0.3" d="M60.2412 264.525H25.1328V266.224H60.2412V264.525Z" fill="black"/>
<path opacity="0.3" d="M46.4916 259.763H39.712C39.1111 259.763 38.624 260.233 38.624 260.812V261.206C38.624 261.786 39.1111 262.256 39.712 262.256H46.4916C47.0925 262.256 47.5796 261.786 47.5796 261.206V260.812C47.5796 260.233 47.0925 259.763 46.4916 259.763Z" fill="black"/>
<path d="M288.007 185.569H283.886V285.708H288.007V185.569Z" fill="#263238"/>
<path opacity="0.3" d="M288.007 185.569H283.886V285.708H288.007V185.569Z" fill="white"/>
<path d="M268.627 292.976L283.886 283.156L285.94 284.73L272.564 292.976H268.627Z" fill="#263238"/>
<path opacity="0.3" d="M268.627 292.976L283.886 283.156L285.94 284.73L272.564 292.976H268.627Z" fill="white"/>
<path d="M303.26 292.976L288 283.156L285.94 284.73L299.322 292.976H303.26Z" fill="#263238"/>
<path opacity="0.3" d="M303.26 292.976L288 283.156L285.94 284.73L299.322 292.976H303.26Z" fill="white"/>
<path d="M264.683 147.659C264.275 145.219 265.846 142.89 268.328 142.28C272.66 141.224 279.772 139.348 280.636 138.239C281.887 136.632 282.724 128.983 282.724 128.983L287.728 129.79V197.594H267.913C267.913 197.594 268.124 193.166 269.79 187.531C271.456 181.896 274.38 176.064 274.38 176.064C274.38 176.064 266.24 156.876 264.69 147.659H264.683Z" fill="#165E7E"/>
<path d="M307.972 147.659C308.38 145.219 306.809 142.89 304.327 142.28C299.996 141.224 292.883 139.348 292.019 138.239C290.768 136.632 289.932 128.983 289.932 128.983L284.927 129.79V197.594H304.742C304.742 197.594 304.531 193.166 302.865 187.531C301.199 181.896 298.275 176.064 298.275 176.064C298.275 176.064 306.415 156.876 307.965 147.659H307.972Z" fill="#165E7E"/>
<path opacity="0.2" d="M286.681 133.752C289.595 133.752 291.958 129.302 291.958 123.813C291.958 118.325 289.595 113.875 286.681 113.875C283.767 113.875 281.404 118.325 281.404 123.813C281.404 129.302 283.767 133.752 286.681 133.752Z" fill="black"/>
<path d="M286.681 131.804C292.097 131.804 296.487 126.579 296.487 120.133C296.487 113.688 292.097 108.463 286.681 108.463C281.266 108.463 276.876 113.688 276.876 120.133C276.876 126.579 281.266 131.804 286.681 131.804Z" fill="#165E7E"/>
<path d="M267.662 158.457C267.662 158.457 275.352 149.076 286.681 158.457C286.681 158.457 298.112 148.236 304.633 159.526L299.214 176.398C299.214 176.398 308.598 198.591 308.04 215.922L310.338 266.29H302.498L299.764 225.9L297.935 266.29H266.274C266.274 266.29 265.676 202.796 269.192 189.741C271.925 179.593 273.584 176.398 273.584 176.398L267.662 158.457Z" fill="#263238"/>
<path d="M60.4724 123.098H25.8264C25.3572 123.098 24.9492 122.803 24.82 122.37C24.6908 121.931 24.8744 121.478 25.2756 121.235L42.4116 110.956L60.9824 121.288C61.3836 121.511 61.574 121.95 61.4516 122.377C61.3292 122.81 60.9416 123.098 60.4792 123.098H60.4724ZM25.6292 121.793C25.4116 121.924 25.4524 122.128 25.4728 122.187C25.4932 122.246 25.568 122.442 25.8264 122.442H60.4724C60.7036 122.442 60.7716 122.265 60.7852 122.206C60.7988 122.147 60.8328 121.964 60.6356 121.852L42.4184 111.717L25.6292 121.786V121.793Z" fill="#263238"/>
<path d="M42.5408 111.671C42.5068 111.671 42.4728 111.671 42.4388 111.658C42.262 111.599 42.16 111.415 42.2212 111.244C42.6156 110.083 42.806 108.876 42.7924 107.65C42.7924 107.125 42.7312 106.462 42.3776 105.996C42.1396 105.675 41.7384 105.465 41.276 105.419C40.7932 105.367 40.324 105.498 39.9976 105.773C39.3312 106.338 39.2496 107.472 39.8276 108.155C39.9432 108.292 39.9228 108.502 39.78 108.614C39.6372 108.732 39.4196 108.706 39.304 108.568C38.4948 107.617 38.6104 106.075 39.5488 105.281C40.018 104.881 40.6776 104.698 41.3508 104.763C42.0036 104.835 42.5748 105.144 42.9284 105.609C43.3908 106.226 43.4656 107.02 43.4724 107.643C43.486 108.935 43.2888 110.215 42.8672 111.448C42.8196 111.586 42.6836 111.677 42.5408 111.677V111.671Z" fill="#263238"/>
<path d="M33.1772 115.823L42.7652 128.655L50.354 115.24L61.0776 121.203L65.4296 128.517L59.2076 131.626L57.2084 143.52L59.2076 160.838C48.994 163.554 38.9096 163.626 28.968 160.838L30.6204 143.723L28.968 133.594L20.8352 130.669L23.6368 122.39L33.1704 115.817L33.1772 115.823Z" fill="#165E7E"/>
<path opacity="0.3" d="M28.968 133.601L26.9416 126.818V132.873L28.968 133.601Z" fill="black"/>
<path opacity="0.3" d="M59.2076 131.626L60.0032 124.935L61.098 130.682L59.2076 131.626Z" fill="black"/>
<path opacity="0.3" d="M37.604 151.851C37.604 151.851 48.8512 146.052 51.6596 140.279C51.6596 140.279 48.994 151.916 37.604 151.851Z" fill="black"/>
<path d="M108.99 123.098H74.3444C73.8752 123.098 73.4672 122.803 73.338 122.37C73.2088 121.931 73.3924 121.478 73.7936 121.235L90.9296 110.956L109.5 121.288C109.902 121.511 110.092 121.95 109.97 122.383C109.847 122.816 109.46 123.105 108.997 123.105L108.99 123.098ZM74.1472 121.793C73.9296 121.924 73.9704 122.128 73.9908 122.187C74.0112 122.246 74.086 122.442 74.3444 122.442H108.99C109.222 122.442 109.29 122.265 109.303 122.206C109.317 122.147 109.351 121.964 109.154 121.852L90.9364 111.717L74.1472 121.786V121.793Z" fill="#263238"/>
<path d="M91.0588 111.671C91.0248 111.671 90.9908 111.671 90.9568 111.658C90.78 111.599 90.678 111.415 90.7392 111.244C91.1336 110.083 91.324 108.87 91.3104 107.65C91.3104 107.125 91.2492 106.462 90.8956 105.996C90.6576 105.675 90.2564 105.465 89.794 105.419C89.3112 105.367 88.842 105.498 88.5156 105.773C87.8492 106.338 87.7676 107.472 88.3456 108.155C88.4612 108.292 88.4408 108.502 88.298 108.614C88.1552 108.732 87.9376 108.706 87.822 108.568C87.0128 107.617 87.1284 106.075 88.0668 105.281C88.536 104.881 89.1956 104.698 89.8688 104.763C90.5216 104.835 91.0928 105.144 91.4464 105.609C91.9088 106.226 91.9836 107.02 91.9904 107.643C92.004 108.935 91.8068 110.215 91.3852 111.448C91.3376 111.586 91.2084 111.677 91.0588 111.677V111.671Z" fill="#263238"/>
<path d="M81.7904 116.328L79.7368 117.503L81.2328 129.35L82.1576 129.107L81.7904 116.328Z" fill="#263238"/>
<path d="M100.749 116.374L102.32 117.24L99.2596 128.891L98.532 128.635L100.599 116.611L100.749 116.374Z" fill="#263238"/>
<path d="M61.098 210.091C65.3684 215.745 69.6796 217.667 73.7256 218.041C78.2952 217.897 81.838 214.774 85.4216 210.091C86.2988 208.66 87.7268 208.313 88.094 210.091L88.8828 212.242C89.0392 212.649 89.5084 212.859 89.9368 212.701C90.1816 212.616 90.3652 212.419 90.44 212.177L90.9976 210.11C91.1676 209.277 92.004 208.739 92.8608 208.903C93.4932 209.021 93.9896 209.5 94.112 210.11L94.7784 213.495C95.8188 216.224 98.7428 220.2 105.176 220.003C109.63 220.055 112.9 214.932 116.205 210.117L100.395 148.879L80.9744 148.269L61.098 210.097V210.091Z" fill="#165E7E"/>
<path opacity="0.2" d="M93.4524 209.192C93.0376 208.857 92.48 208.759 91.97 208.916V174.089L93.4524 209.192Z" fill="black"/>
<path d="M74.664 130.452L80.3488 127.828C81.7428 127.179 83.3816 127.257 84.7008 128.032L90.7256 131.528L95.6896 128.543C97.4848 127.467 99.7356 127.408 101.592 128.379L107.202 131.318L101.218 151.602L97.886 152.953C97.0224 153.301 96.0432 153.235 95.234 152.776L91.6028 150.421C90.8276 149.922 89.8144 149.942 89.0596 150.467L86.6728 152.133C85.7208 152.796 84.5104 153.012 83.3748 152.736L79.764 151.838L74.6708 130.459L74.664 130.452Z" fill="#165E7E"/>
<path d="M79.7572 151.831L78.7712 147.698C86.768 149.076 94.588 149.325 102.19 148.263L101.402 152.756C101.402 152.756 90.6916 155.078 80.3216 151.851" fill="#263238"/>
<g opacity="0.2">
<path d="M81.1988 141.958C82.6404 142.746 84.354 143.054 85.9996 142.831C87.6384 142.608 89.1956 141.853 90.3652 140.712C90.1476 142.483 88.4136 143.854 86.5776 144.071C84.7416 144.287 82.8988 143.526 81.4776 142.378" fill="black"/>
</g>
<path d="M191.461 132.873C189.312 132.689 184.98 136.323 183.824 137.458C182.668 138.593 173.522 142.424 173.522 142.424L163.363 130.885L159.331 132.991C159.331 132.991 168.266 150.486 169.184 151.477C170.102 152.468 171.605 152.592 174.345 152.218C177.086 151.844 192.522 141.821 192.141 141.696C191.753 141.571 191.474 132.873 191.474 132.873H191.461Z" fill="#B97964"/>
<path d="M163.424 131.482C163.424 131.482 164.635 130.013 164.431 128.478C164.227 126.936 164.492 125.657 164.261 124.522C164.03 123.387 163.227 124.745 162.955 125.545C162.683 126.352 162.364 127.257 161.765 126.962C161.174 126.667 158.066 122.003 157.196 121.681C156.325 121.36 156.584 122.265 156.584 122.265C156.584 122.265 155.795 121.15 155.258 121.334C155.115 121.38 154.87 121.708 155.142 122.272C155.761 123.531 157.209 126.123 157.209 126.123C157.128 125.972 155.108 122.902 154.748 122.482C154.272 121.931 153.755 121.904 153.435 122.18C152.98 122.574 155.346 126.457 155.326 126.693C155.326 126.693 154.04 124.41 153.245 124.41C152.449 124.41 153.184 125.886 154.081 127.074C154.904 128.163 156.223 130.505 157.175 131.528C158.345 132.794 159.426 133.391 160.997 132.919C162.568 132.446 163.424 131.482 163.424 131.482Z" fill="#B97964"/>
<path opacity="0.3" d="M156.604 128.156C156.55 128.156 156.502 128.13 156.468 128.091C156.414 128.018 156.427 127.913 156.502 127.861C157.549 127.126 158.671 126.483 159.848 125.965C159.929 125.926 160.031 125.965 160.072 126.044C160.113 126.129 160.072 126.221 159.99 126.26C158.834 126.772 157.726 127.402 156.699 128.123C156.672 128.143 156.631 128.156 156.597 128.156H156.604Z" fill="black"/>
<path opacity="0.3" d="M160.242 130.623C160.242 130.623 160.222 130.623 160.215 130.623C160.12 130.61 160.058 130.524 160.072 130.432C160.249 129.383 160.915 128.412 161.847 127.835C161.928 127.789 162.03 127.808 162.085 127.887C162.132 127.966 162.112 128.064 162.03 128.117C161.18 128.642 160.575 129.527 160.412 130.492C160.398 130.57 160.324 130.629 160.242 130.629V130.623Z" fill="black"/>
<path d="M194.752 107.479L200.804 104.133C197.452 101.273 193.501 101.956 190.937 104.219C189.441 105.544 189.761 106.757 188.714 107.492C187.503 108.338 186.198 108.798 185.225 109.972C183.79 111.71 184.668 114.682 183.641 116.761C183.015 118.028 181.71 118.913 181.587 120.356C181.472 121.734 182.532 122.987 182.396 124.364C182.322 125.112 181.893 125.886 182.179 126.569C182.417 127.146 183.049 127.343 183.6 127.454C187.551 128.228 191.685 127.815 195.452 126.26C195.813 126.109 196.207 125.919 196.37 125.519C196.486 125.237 196.459 124.902 196.425 124.594C195.86 118.893 195.303 113.193 194.738 107.486L194.752 107.479Z" fill="#263238"/>
<path d="M202.239 107.715L199.111 104.593C201.022 103.333 203.626 103.596 205.312 105.216C206.251 106.115 206.91 107.381 207.958 108.109C209.168 108.955 210.793 109.027 211.759 110.208C213.194 111.946 212.316 114.918 213.343 116.998C213.969 118.264 215.274 119.149 215.397 120.592C215.512 121.97 214.452 123.223 214.588 124.601C214.662 125.348 215.091 126.123 214.805 126.805C214.567 127.382 213.935 127.579 213.384 127.69C209.433 128.464 205.299 128.051 201.532 126.496C201.171 126.346 200.777 126.155 200.614 125.755C200.498 125.473 200.525 125.139 200.559 124.83C201.124 119.13 201.681 113.422 202.246 107.722L202.239 107.715Z" fill="#263238"/>
<path d="M205.87 132.243C205.87 132.243 203.49 133.371 200.559 135.812C199.947 136.317 199.274 136.756 198.56 137.124C196.636 138.108 194.888 138.672 194.412 137.78C194.303 137.583 194.228 137.373 194.167 137.15C193.766 135.654 193.929 133.548 195.187 132.584C196.602 131.495 197.282 130.57 197.03 129.101C196.894 128.268 196.581 127.408 196.221 126.569L197.853 125.624L203.674 119.956C203.007 123.433 202.81 130.19 205.877 132.25L205.87 132.243Z" fill="#B97964"/>
<path opacity="0.2" d="M197.071 129.416C198.669 128.497 200.43 126.91 200.219 125.093C200.124 124.325 199.954 123.604 199.764 123.138L196.513 127.29C196.778 127.959 196.88 128.405 197.071 129.416Z" fill="black"/>
<path d="M204.789 113.56C204.238 119.333 204.136 121.773 201.049 124.804C196.404 129.357 189.264 127.822 188.034 122.108C186.925 116.958 188.006 108.391 193.882 105.964C199.668 103.576 205.34 107.794 204.789 113.567V113.56Z" fill="#B97964"/>
<path d="M197.044 115.443C197.016 116.053 196.67 116.552 196.275 116.565C195.881 116.571 195.588 116.086 195.616 115.476C195.643 114.866 195.99 114.367 196.384 114.354C196.778 114.347 197.071 114.833 197.044 115.443Z" fill="#263238"/>
<path d="M191.148 115.423C191.121 116.014 190.774 116.499 190.386 116.506C189.992 116.512 189.7 116.04 189.734 115.449C189.761 114.859 190.108 114.374 190.495 114.367C190.89 114.36 191.182 114.833 191.148 115.423Z" fill="#263238"/>
<path d="M198.295 113.317C198.22 113.324 198.138 113.304 198.084 113.252C197.166 112.432 196.126 112.72 196.112 112.72C195.956 112.766 195.806 112.681 195.765 112.53C195.731 112.379 195.826 112.222 195.983 112.176C196.037 112.163 197.336 111.796 198.485 112.819C198.601 112.924 198.601 113.101 198.485 113.219C198.431 113.278 198.363 113.311 198.288 113.317H198.295Z" fill="#263238"/>
<path d="M189.162 112.53C189.101 112.511 189.054 112.465 189.026 112.406C188.972 112.274 189.04 112.11 189.176 112.038C190.543 111.297 191.556 111.861 191.597 111.887C191.719 111.96 191.746 112.117 191.658 112.255C191.576 112.386 191.406 112.438 191.291 112.373C191.25 112.353 190.461 111.927 189.373 112.517C189.305 112.556 189.23 112.563 189.162 112.543V112.53Z" fill="#263238"/>
<path d="M192.753 115.141C192.753 115.141 191.814 117.299 190.76 118.644C190.577 118.88 190.692 119.221 190.978 119.326C191.719 119.589 192.583 119.353 192.583 119.353L192.753 115.141Z" fill="#A24E3F"/>
<path d="M196.608 114.374L195.235 114.059C195.235 114.059 195.983 115.049 196.608 114.374Z" fill="#263238"/>
<path d="M190.631 114.38L189.258 114.065C189.258 114.065 190.006 115.056 190.631 114.38Z" fill="#263238"/>
<path d="M202.715 115.554C202.715 115.554 199.628 111.074 199.791 107.446C199.791 107.446 193.888 105.964 189.176 112.032C188.428 112.996 187.979 114.61 187.306 116C187.306 116 187.558 104.534 197.656 103.635C207.74 102.736 213.472 117.955 203.422 121.498C203.422 121.498 204.626 118.356 202.715 115.554Z" fill="#263238"/>
<path d="M206.598 118.264C205.89 119.444 204.741 120.192 203.694 120.442C202.11 120.822 201.294 118.369 201.831 116.84C202.32 115.463 203.871 114.551 205.414 114.852C206.931 115.148 207.407 116.912 206.598 118.264Z" fill="#B97964"/>
<path opacity="0.2" d="M203.259 118.119H203.245C203.15 118.119 203.082 118.034 203.089 117.942C203.13 117.352 203.415 116.788 203.878 116.394C204.34 116 204.959 115.804 205.571 115.836C205.666 115.836 205.734 115.922 205.727 116.014C205.727 116.105 205.646 116.178 205.55 116.164C205.034 116.132 204.496 116.309 204.102 116.643C203.708 116.978 203.463 117.463 203.422 117.968C203.422 118.054 203.34 118.119 203.252 118.119H203.259Z" fill="black"/>
<path d="M194.494 121.262C194.324 121.262 194.14 121.242 193.943 121.203C193.854 121.183 193.793 121.098 193.814 121.012C193.834 120.927 193.916 120.861 194.018 120.888C195.616 121.203 196.153 119.877 196.18 119.825C196.214 119.74 196.309 119.7 196.398 119.727C196.486 119.759 196.534 119.851 196.5 119.936C196.5 119.95 195.976 121.268 194.5 121.268L194.494 121.262Z" fill="#263238"/>
<path d="M206.23 120.632C206.23 121.281 205.686 121.806 205.013 121.806C204.34 121.806 203.796 121.281 203.796 120.632C203.796 119.982 204.34 119.458 205.013 119.458C205.686 119.458 206.23 119.982 206.23 120.632Z" fill="#165E7E"/>
<path d="M246.289 217.995C241.434 216.939 236.382 217.464 231.465 218.199C222.136 219.596 212.833 221.787 204.306 225.835C193.97 227.212 179.588 227.245 176.895 231.168C203.578 242.149 235.13 230.413 247.221 222.994C248.214 222.384 249.308 221.518 249.247 220.344C249.172 218.986 247.615 218.277 246.296 217.989L246.289 217.995Z" fill="#165E7E"/>
<g opacity="0.2">
<path d="M246.289 217.995C241.434 216.939 236.382 217.464 231.465 218.199C222.136 219.596 212.833 221.787 204.306 225.835C193.97 227.212 179.588 227.245 176.895 231.168C203.578 242.149 235.13 230.413 247.221 222.994C248.214 222.384 249.308 221.518 249.247 220.344C249.172 218.986 247.615 218.277 246.296 217.989L246.289 217.995Z" fill="black"/>
</g>
<path d="M216.403 137.183C216.403 137.183 218.396 137.931 219.912 142.057C220.959 144.904 226.304 161.146 226.562 163.843C226.964 168.054 224.699 191.696 224.699 191.696L220.286 191.237C220.286 191.237 218.715 165.752 218.654 165.483C218.593 165.22 211.011 145.724 211.011 145.724L216.403 137.183Z" fill="#B97964"/>
<path d="M222.557 241.985C221.578 238.62 219.232 234.953 218.736 232.231C218.294 229.869 218.872 228.262 218.525 222.817C218.124 216.231 217.029 207.486 214.18 201.025C214.18 201.025 219.728 192.641 214.2 183.437L210.508 177.592L190.21 177.71L205.836 232.073L222.326 277.783L228.018 277.003C227.453 267.222 225.168 251.714 222.564 241.985H222.557Z" fill="#B97964"/>
<path opacity="0.2" d="M218.423 218.979L204.19 222.738L203.667 224.621L204.211 226.432L204.802 228.478C204.802 228.478 207.822 227.461 210.95 226.504C214.078 225.546 218.6 224.24 218.6 224.24L218.423 218.979Z" fill="black"/>
<path d="M220.286 291.815C220.816 291.061 221.496 290.365 222.285 289.762C222.285 289.762 224.046 286.672 222.646 280.302L225.828 278.111C226.93 277.383 228.344 277.193 229.378 277.639C229.52 277.704 229.65 277.783 229.758 277.882C230.214 278.42 230.622 278.99 230.976 279.587C232.145 281.634 233.145 283.759 233.968 285.957L233.315 286.252L231.227 282.342C230.574 280.991 229.813 283.248 230.078 284.888C230.343 286.528 230.214 288.509 226.161 290.339C221.51 292.458 219.47 293.193 220.279 291.822L220.286 291.815Z" fill="black"/>
<path d="M221.877 275.946C221.877 275.946 222.795 280.925 222.924 284.409C223.122 286.147 222.89 287.971 222.244 289.781C222.244 289.781 225.481 288.843 226.107 286.764C226.732 284.684 226.175 278.754 229.391 277.665C228.976 277.39 228.514 277.167 228.011 277.003L227.65 275.179C225.937 275.402 221.877 275.946 221.877 275.946Z" fill="#B97964"/>
<path d="M212.452 146.931L217.45 136.861C215.2 133.614 204.048 131.121 204.048 131.121L196.704 131.508C196.704 131.508 193.882 132.118 191.461 132.879C188.231 133.896 186.49 134.71 185.722 136.441C185.722 136.441 184.178 140.292 185.184 148.158C185.463 150.329 186.218 162.918 184.164 166.539L184.205 167.536C197.628 177.619 208.984 175.933 208.984 175.933C208.379 174.155 208.44 168.284 208.168 166.539C208.366 164.321 208.284 162.629 209.256 158.739C209.447 157.991 212.133 147.666 212.459 146.937L212.452 146.931Z" fill="#B97964"/>
<path d="M181.587 182.853L179.391 232.388L181.152 280.394L187.34 281.929C190.08 272.443 192.304 253.8 192.943 244.078C193.093 240.745 191.978 236.901 192.365 234.271C192.705 231.962 193.82 230.505 195.282 225.264C197.05 218.927 198.839 210.451 198.125 203.885C198.125 203.885 206.441 196.682 203.98 187.117L181.594 182.847L181.587 182.853Z" fill="#B97964"/>
<path opacity="0.2" d="M179.391 232.388C179.391 232.388 181.805 230.171 186.245 230.82C190.686 231.47 192.787 232.545 192.787 232.545L193.99 229.311L183.818 226.53L179.391 228.642V232.395V232.388Z" fill="black"/>
<path d="M173.359 291.684C174.168 291.218 175.093 290.864 176.072 290.641C176.072 290.641 179.03 288.568 180.554 282.218L184.402 281.536C185.722 281.326 187.088 281.732 187.823 282.559C187.925 282.677 188.006 282.802 188.061 282.933C188.238 283.608 188.353 284.291 188.414 284.973C188.571 287.302 188.544 289.637 188.326 291.966H187.605L187.435 287.571C187.435 286.075 185.756 287.813 185.28 289.408C184.804 291.002 183.811 292.74 179.336 292.74C174.189 292.76 172.02 292.589 173.359 291.671V291.684Z" fill="black"/>
<path d="M181.288 279.941C181.288 279.941 180.418 282.841 179.003 286.055C178.418 287.708 177.412 289.263 176.025 290.641C176.025 290.641 179.37 291.113 180.853 289.493C182.335 287.866 184.436 282.264 187.823 282.598C187.571 282.185 187.245 281.791 186.864 281.431C186.313 280.84 181.281 279.948 181.281 279.948L181.288 279.941Z" fill="#B97964"/>
<path d="M220.538 191.152C220.538 191.152 218.77 191.926 218.219 193.382C217.668 194.839 216.832 195.862 216.498 196.977C216.165 198.086 217.525 197.233 218.144 196.643C218.77 196.046 219.484 195.376 219.871 195.901C220.259 196.426 220.823 201.943 221.442 202.612C222.068 203.281 222.265 202.363 222.265 202.363C222.265 202.363 222.442 203.701 223.006 203.773C223.156 203.793 223.53 203.609 223.55 202.986C223.598 201.589 223.53 198.656 223.53 198.656C223.53 198.827 223.876 202.442 223.999 202.98C224.162 203.681 224.611 203.931 225.026 203.826C225.617 203.675 225.345 199.175 225.474 198.978C225.474 198.978 225.542 201.576 226.243 201.923C226.95 202.271 226.998 200.638 226.76 199.188C226.542 197.856 226.467 195.193 226.114 193.861C225.672 192.221 224.992 191.217 223.366 190.942C221.741 190.673 220.531 191.152 220.531 191.152H220.538Z" fill="#B97964"/>
<path d="M179.282 182.67C176.494 196.006 176.46 219.609 176.895 231.168C176.895 231.168 182.988 226.044 192.746 229.482C202.504 232.919 206.666 232.985 211.582 231.483C216.492 229.98 220.347 222.482 234.518 219.858C248.69 217.234 249.227 220.206 249.227 220.206C249.227 220.206 250.927 216.801 243.841 214.42C236.756 212.045 228.269 203.885 224.169 198.696C220.068 193.507 212.364 177.966 210.331 173.978C208.182 169.773 208.318 165.155 208.318 165.155L184.96 162.996C184.96 162.996 181.519 172.01 179.289 182.67H179.282Z" fill="#263238"/>
<path d="M206.23 131.666L202.96 134.198C199.417 136.94 194.575 135.969 191.801 132.505C188.285 133.365 186.606 133.903 186.606 133.903C186.606 133.903 184.178 140.286 185.184 148.151C185.463 150.322 186.218 162.911 184.164 166.532L184.205 167.529C197.628 177.612 208.984 175.926 208.984 175.926C208.379 174.148 208.515 167.969 208.243 166.23C208.44 164.013 208.284 162.629 209.256 158.739C209.447 157.991 212.833 148.308 213.16 147.58L217.301 136.415C214.234 133.411 206.23 131.672 206.23 131.672V131.666Z" fill="#263238"/>
<path d="M183.92 166.434L208.685 168.448L208.692 163.81L185.239 161.868L183.92 166.434Z" fill="#165E7E"/>
<path d="M176.691 140.102L181.846 150.047L186.266 147.324L189.264 133.483C189.264 133.483 186.565 133.463 184.368 135.077C182.294 136.599 176.691 140.102 176.691 140.102Z" fill="#263238"/>
<path opacity="0.2" d="M185.164 147.994C185.164 147.994 184.81 144.93 184.994 142.162L185.184 139.393C185.184 139.393 183.131 145.94 183.41 149.083L185.171 147.994H185.164Z" fill="black"/>
<path d="M211.228 147.567L213.527 155.4L223.217 149.614C223.217 149.614 219.844 136.52 216.58 136.127C213.316 135.733 211.222 147.567 211.222 147.567H211.228Z" fill="#263238"/>
<path opacity="0.2" d="M212.085 150.48L213.982 143.907L212.996 153.57L212.085 150.48Z" fill="black"/>
<path d="M254 192.398H129.996V292.976H254V192.398Z" fill="#165E7E"/>
<path opacity="0.2" d="M254 192.398H129.996V292.976H254V192.398Z" fill="black"/>
<path d="M133.946 187.537L139.25 155.813H162.874L168.817 187.209L133.946 187.537Z" fill="#165E7E"/>
<path opacity="0.3" d="M133.946 187.537L139.25 155.813H162.874L168.817 187.209L133.946 187.537Z" fill="white"/>
<path opacity="0.3" d="M159.542 187.131L168.817 187.209L162.874 155.813L159.542 187.131Z" fill="black"/>
<path d="M146.424 158.07C146.424 158.64 145.942 159.106 145.35 159.106C144.758 159.106 144.276 158.64 144.276 158.07C144.276 157.499 144.758 157.033 145.35 157.033C145.942 157.033 146.424 157.499 146.424 158.07Z" fill="#263238"/>
<path d="M156.794 158.07C156.794 158.64 156.312 159.106 155.72 159.106C155.128 159.106 154.646 158.64 154.646 158.07C154.646 157.499 155.128 157.033 155.72 157.033C156.312 157.033 156.794 157.499 156.794 158.07Z" fill="#263238"/>
<path d="M145.534 157.735C145.534 156.01 145.54 154.193 146.499 152.671C147.458 151.149 149.185 150.513 150.987 150.513C152.789 150.513 154.401 151.149 155.081 152.835C155.761 154.521 155.36 156.285 155.373 157.998C155.373 158.312 155.883 158.312 155.883 157.998C155.87 156.423 156.176 154.809 155.761 153.261C155.428 152.035 154.652 150.959 153.422 150.44C150.824 149.358 147.336 150.165 145.942 152.618C145.058 154.18 145.03 155.99 145.03 157.729C145.03 158.044 145.54 158.044 145.54 157.729L145.534 157.735Z" fill="#263238"/>
<path opacity="0.1" d="M163.839 185.504L162.874 155.813L159.542 187.131L163.839 185.504Z" fill="black"/>
<path d="M154.836 171.472H142.31L142.807 168.592H155.332L154.836 171.472Z" fill="white"/>
<path opacity="0.3" d="M254 191.545H129.996V197.495H254V191.545Z" fill="black"/>
<path d="M258.053 186.514H124.27V193.172H258.053V186.514Z" fill="#165E7E"/>
<path d="M201.538 227.776H177.133V242.772H201.538V227.776Z" fill="#263238"/>
<path opacity="0.3" d="M201.538 227.776H177.133V242.772H201.538V227.776Z" fill="white"/>
<path d="M203.075 226.084H175.59V232.362H203.075V226.084Z" fill="#263238"/>
<path opacity="0.3" d="M203.075 226.084H175.59V232.362H203.075V226.084Z" fill="white"/>
<path opacity="0.3" d="M201.538 232.414H177.133V233.962H201.538V232.414Z" fill="black"/>
<path opacity="0.3" d="M193.236 228.072H185.429C185.005 228.072 184.661 228.403 184.661 228.813V229.607C184.661 230.016 185.005 230.348 185.429 230.348H193.236C193.66 230.348 194.004 230.016 194.004 229.607V228.813C194.004 228.403 193.66 228.072 193.236 228.072Z" fill="black"/>
<path d="M208.923 242.687H101.83V292.976H208.923V242.687Z" fill="#263238"/>
<path d="M115.947 228.091L115.437 228.065C115.457 227.711 115.471 227.33 115.491 226.943C115.6 224.411 115.743 221.256 117.15 219.137C118.612 216.939 121.088 215.634 124.515 215.247C127.609 214.899 130.737 216.165 132.491 218.468C134.409 220.98 134.552 224.306 134.531 227.501H134.021C134.035 224.391 133.899 221.157 132.076 218.763C130.424 216.598 127.48 215.411 124.569 215.739C121.305 216.106 118.952 217.339 117.572 219.406C116.232 221.413 116.103 224.496 115.994 226.969C115.974 227.356 115.96 227.737 115.94 228.091H115.947Z" fill="#263238"/>
<path d="M138.149 242.687H111.826L114.532 226.182H136.007L138.149 242.687Z" fill="#165E7E"/>
<path opacity="0.3" d="M114.532 226.182C114.532 226.182 117.769 234.402 124.984 234.435C132.199 234.468 136.007 226.182 136.007 226.182C136.007 226.182 132.471 236.029 124.984 235.884C117.497 235.734 114.532 226.182 114.532 226.182Z" fill="black"/>
<path d="M127.221 231.443H122.937V232.244H127.221V231.443Z" fill="#263238"/>
<path d="M171.544 241.31C170.646 240.791 169.626 240.398 168.531 240.148C168.191 240.194 164.75 240.581 163.18 238.856C161.527 237.039 159.188 230.787 155.407 231.155C155.434 231.115 155.462 231.076 155.489 231.037C155.462 231.063 155.434 231.089 155.407 231.115C155.292 231.247 155.203 231.384 155.142 231.535C154.945 232.29 154.816 233.051 154.748 233.812C154.571 236.416 154.693 239.899 154.931 242.497H155.734L155.842 236.718C155.842 235.051 157.712 236.987 158.25 238.764C158.78 240.542 159.888 242.49 164.88 242.497C170.626 242.523 173.04 242.34 171.557 241.316L171.544 241.31Z" fill="#165E7E"/>
<path opacity="0.1" d="M171.544 241.31C170.646 240.791 169.626 240.398 168.531 240.148C168.191 240.194 164.75 240.581 163.18 238.856C161.527 237.039 159.188 230.787 155.407 231.155C155.434 231.115 155.462 231.076 155.489 231.037C155.462 231.063 155.434 231.089 155.407 231.115C155.292 231.247 155.203 231.384 155.142 231.535C154.945 232.29 154.816 233.051 154.748 233.812C154.571 236.416 154.693 239.899 154.931 242.497H155.734L155.842 236.718C155.842 235.051 157.712 236.987 158.25 238.764C158.78 240.542 159.888 242.49 164.88 242.497C170.626 242.523 173.04 242.34 171.557 241.316L171.544 241.31Z" fill="black"/>
<path d="M162.064 241.31C161.167 240.791 160.147 240.398 159.052 240.148C158.712 240.194 155.271 240.581 153.7 238.856C152.048 237.039 149.709 230.787 145.928 231.155C145.955 231.115 145.982 231.076 146.01 231.037C145.982 231.063 145.955 231.089 145.928 231.115C145.812 231.247 145.724 231.384 145.663 231.535C145.466 232.29 145.336 233.051 145.268 233.812C145.092 236.416 145.214 239.899 145.452 242.497H146.254L146.363 236.718C146.363 235.051 148.233 236.987 148.77 238.764C149.301 240.542 150.409 242.49 155.4 242.497C161.146 242.523 163.56 242.34 162.078 241.316L162.064 241.31Z" fill="#165E7E"/>
</svg>
