<svg xmlns="http://www.w3.org/2000/svg" xmlns:xlink="http://www.w3.org/1999/xlink" width="269" zoomAndPan="magnify" viewBox="0 0 201.75 201.75" height="269" preserveAspectRatio="xMidYMid meet" version="1.0"><defs><clipPath id="8a6d58556d"><path d="M 0 0 L 201.269531 0 L 201.269531 201.269531 L 0 201.269531 Z M 0 0 " clip-rule="nonzero"/></clipPath><clipPath id="4e4b3149a9"><path d="M 100.636719 0 C 45.054688 0 0 45.054688 0 100.636719 C 0 156.214844 45.054688 201.269531 100.636719 201.269531 C 156.214844 201.269531 201.269531 156.214844 201.269531 100.636719 C 201.269531 45.054688 156.214844 0 100.636719 0 Z M 100.636719 0 " clip-rule="nonzero"/></clipPath><clipPath id="336207e532"><path d="M 26.851562 26 L 174.417969 26 L 174.417969 175 L 26.851562 175 Z M 26.851562 26 " clip-rule="nonzero"/></clipPath></defs><g clip-path="url(#8a6d58556d)"><g clip-path="url(#4e4b3149a9)"><path fill="#ffffff" d="M 0 0 L 201.269531 0 L 201.269531 201.269531 L 0 201.269531 Z M 0 0 " fill-opacity="1" fill-rule="nonzero"/></g></g><g clip-path="url(#336207e532)"><path fill="#000000" d="M 100.722656 172.796875 C 100.722656 171.121094 101.246094 166.824219 101.585938 165.65625 C 101.710938 165.242188 101.902344 164.027344 102.019531 162.957031 C 102.125 161.886719 102.371094 160.089844 102.558594 158.960938 C 102.738281 157.832031 103.089844 155.449219 103.316406 153.667969 C 103.882812 149.332031 104.167969 147.980469 105.925781 141.074219 C 107.464844 135.015625 109.347656 128.960938 111.011719 124.644531 C 113.558594 118.035156 116.089844 115.070312 121.355469 112.511719 C 125.421875 110.53125 132.34375 108.230469 140.582031 106.113281 C 147.070312 104.445312 149.078125 104.023438 153.328125 103.449219 C 155.109375 103.207031 157.542969 102.859375 158.730469 102.675781 C 159.917969 102.496094 161.664062 102.261719 162.617188 102.152344 C 163.5625 102.046875 165.03125 101.808594 165.859375 101.625 C 168.128906 101.125 170.53125 100.84375 172.574219 100.84375 C 173.636719 100.84375 174.390625 100.753906 174.390625 100.628906 C 174.390625 100.5 173.601562 100.414062 172.449219 100.414062 C 170.511719 100.414062 166.867188 99.960938 165.21875 99.519531 C 164.742188 99.394531 163.527344 99.207031 162.519531 99.105469 C 161.5 99.003906 159.746094 98.769531 158.621094 98.585938 C 157.488281 98.398438 155.398438 98.101562 153.976562 97.921875 C 149.59375 97.363281 146.863281 96.800781 140.472656 95.136719 C 133.929688 93.433594 126.726562 91.136719 122.929688 89.539062 C 117.925781 87.433594 114.746094 84.609375 112.632812 80.386719 C 110.722656 76.578125 108.011719 68.425781 105.933594 60.230469 C 104.160156 53.261719 103.882812 51.917969 103.316406 47.589844 C 103.089844 45.808594 102.738281 43.425781 102.558594 42.296875 C 102.371094 41.167969 102.125 39.371094 102.019531 38.300781 C 101.902344 37.230469 101.710938 36.015625 101.585938 35.601562 C 101.246094 34.433594 100.722656 30.136719 100.722656 28.460938 C 100.722656 25.796875 100.351562 26.867188 100.21875 29.929688 C 100.144531 31.59375 99.894531 33.804688 99.652344 34.953125 C 99.40625 36.082031 99.109375 37.832031 99.003906 38.839844 C 98.886719 39.851562 98.644531 41.601562 98.460938 42.730469 C 98.28125 43.859375 97.941406 46.242188 97.707031 48.023438 C 97.148438 52.234375 96.699219 54.386719 94.988281 60.960938 C 92.972656 68.695312 90.171875 77.042969 88.480469 80.394531 C 86.398438 84.507812 83.394531 87.234375 78.613281 89.339844 C 72.796875 91.902344 56.179688 96.644531 50.058594 97.488281 C 48.636719 97.683594 46.152344 98.039062 44.550781 98.273438 C 42.949219 98.507812 40.90625 98.796875 40.015625 98.914062 C 39.125 99.035156 37.324219 99.320312 36.019531 99.558594 C 32.308594 100.222656 30.761719 100.402344 28.726562 100.410156 C 27.683594 100.410156 26.835938 100.496094 26.835938 100.597656 C 26.835938 100.699219 28.078125 100.84375 29.589844 100.917969 C 31.101562 100.996094 33.019531 101.191406 33.855469 101.355469 C 35.539062 101.683594 37.882812 102.0625 40.015625 102.347656 C 41.832031 102.59375 46.890625 103.328125 50.601562 103.890625 C 54.039062 104.40625 63.769531 106.847656 69.160156 108.542969 C 73.832031 110.011719 78.757812 111.871094 80.628906 112.875 C 83.941406 114.65625 86.445312 117.152344 88.273438 120.503906 C 89.992188 123.675781 92.882812 132.207031 95.007812 140.390625 C 96.742188 147.125 97.15625 149.085938 97.707031 153.234375 C 97.941406 155.015625 98.273438 157.398438 98.460938 158.527344 C 98.644531 159.65625 98.886719 161.40625 99.003906 162.417969 C 99.109375 163.425781 99.40625 165.175781 99.652344 166.304688 C 99.894531 167.453125 100.144531 169.664062 100.21875 171.328125 C 100.351562 174.390625 100.722656 175.460938 100.722656 172.796875 Z M 139.589844 76.292969 C 140.410156 70.410156 142.183594 64.546875 143.660156 62.816406 C 144.074219 62.335938 144.859375 61.714844 145.414062 61.4375 C 148.46875 59.898438 155.046875 58.328125 161.214844 57.664062 L 162.617188 57.511719 L 161.214844 57.382812 C 156.542969 56.964844 150.925781 55.769531 147.089844 54.378906 C 143.75 53.171875 142.761719 51.871094 141.257812 46.6875 C 140.355469 43.597656 140.003906 41.847656 139.472656 38.03125 C 139.257812 36.453125 139.023438 35.289062 138.945312 35.4375 C 138.863281 35.585938 138.582031 37.214844 138.324219 39.058594 C 137.808594 42.742188 137.339844 44.816406 136.324219 47.914062 C 134.867188 52.390625 134.089844 53.242188 130.238281 54.59375 C 126.609375 55.867188 121.417969 56.945312 116.816406 57.378906 L 115.304688 57.519531 L 116.601562 57.652344 C 119.660156 57.96875 124.34375 58.773438 126.601562 59.375 C 131.175781 60.589844 133.308594 61.550781 134.46875 62.925781 C 135.667969 64.335938 137.476562 70.371094 138.222656 75.460938 C 138.519531 77.480469 138.835938 79.3125 138.925781 79.53125 C 139.023438 79.78125 139.277344 78.546875 139.589844 76.292969 Z M 139.589844 76.292969 " fill-opacity="1" fill-rule="nonzero"/></g></svg>