<svg width="9" height="11" viewBox="0 0 9 11" fill="none" xmlns="http://www.w3.org/2000/svg">
<path d="M4.85655 0L4.08865 1.59285C3.53994 2.73079 2.80453 3.76573 1.91388 4.65339L1.81299 4.7501C1.24097 5.31372 0.914138 6.08567 0.904967 6.89476V6.99716C0.889817 8.58154 1.82006 10.018 3.2591 10.6323L3.40483 10.6948C4.34865 11.1017 5.41489 11.1017 6.35871 10.6948H6.39234C7.84214 10.0555 8.77236 8.59566 8.75208 6.99147V4.52255C8.26893 5.6424 7.39151 6.53901 6.29145 7.03698C6.29145 7.03698 6.29145 7.03698 6.25782 7.03698C6.22419 7.03698 5.83183 7.20195 5.66368 7.03698C5.51349 6.88275 5.49911 6.63946 5.63005 6.4681L5.66929 6.43966H5.69731C6.98411 5.44697 7.2841 3.60765 6.38113 2.24705C5.65247 1.12068 4.85655 0 4.85655 0Z" fill="#FF9900"/>
</svg>
