<svg width="23" height="23" viewBox="0 0 23 23" fill="none" xmlns="http://www.w3.org/2000/svg">
<path d="M10.5533 2.89387H4.58249C2.60394 2.89387 1 4.49776 1 6.47625V18.4176C1 20.3961 2.60394 22 4.58249 22H16.5241C18.5027 22 20.1066 20.3961 20.1066 18.4176V12.4469M6.97082 16.0293L11.3156 15.1538C11.5462 15.1074 11.758 14.9938 11.9243 14.8274L21.6505 5.09622C22.1168 4.62966 22.1165 3.87339 21.6498 3.40723L19.5894 1.34927C19.1229 0.883299 18.367 0.883616 17.9009 1.34998L8.1737 11.0822C8.0077 11.2483 7.89435 11.4596 7.84783 11.6898L6.97082 16.0293Z" stroke="#231f20" stroke-width="2" stroke-linecap="round" stroke-linejoin="round"/>
</svg>
