<svg width="23" height="23" viewBox="0 0 26 24" fill="none" xmlns="http://www.w3.org/2000/svg">
<path d="M16.5294 6.5V3.75C16.5294 3.02065 16.2319 2.32118 15.7024 1.80546C15.1729 1.28973 14.4547 1 13.7059 1H3.82353C3.07468 1 2.35651 1.28973 1.82699 1.80546C1.29748 2.32118 1 3.02065 1 3.75V20.25C1 20.9793 1.29748 21.6788 1.82699 22.1945C2.35651 22.7103 3.07468 23 3.82353 23H13.7059C14.4547 23 15.1729 22.7103 15.7024 22.1945C16.2319 21.6788 16.5294 20.9793 16.5294 20.25V17.5M8.05882 12H25M25 12L20.7647 7.875M25 12L20.7647 16.125" stroke="#231f20" stroke-width="2" stroke-linecap="round" stroke-linejoin="round"/>
</svg>
