<svg width="16" height="20" viewBox="0 0 16 20" fill="none" xmlns="http://www.w3.org/2000/svg">
<path fill-rule="evenodd" clip-rule="evenodd" d="M14.8416 14.0971L15.0716 15.1896C15.2895 16.1341 15.0743 17.1267 14.4847 17.8961C13.8951 18.6655 12.9928 19.1315 12.024 19.1667H3.13072C2.16201 19.1315 1.25963 18.6655 0.670047 17.8961C0.0804599 17.1267 -0.134743 16.1341 0.0832145 15.1896L0.313215 14.0971C0.577748 12.6182 1.84906 11.5314 3.35113 11.5H11.8036C13.3057 11.5314 14.577 12.6182 14.8416 14.0971ZM12.0241 17.7196C12.5107 17.714 12.9686 17.4885 13.2699 17.1063V17.1159C13.6395 16.6522 13.7835 16.0481 13.6628 15.4675L13.4328 14.375C13.3052 13.5654 12.6227 12.9592 11.8036 12.9279H3.35113C2.53211 12.9592 1.84958 13.5654 1.72197 14.375L1.49197 15.4675C1.37424 16.045 1.51809 16.645 1.88488 17.1063C2.18612 17.4885 2.64409 17.714 3.13072 17.7196H12.0241Z" fill="white"/>
<path fill-rule="evenodd" clip-rule="evenodd" d="M8.05653 9.58335H7.0982C4.98111 9.58335 3.26487 7.86711 3.26487 5.75001V3.22001C3.26231 2.36524 3.60074 1.54473 4.20516 0.940309C4.80958 0.335887 5.63009 -0.00254104 6.48487 1.4367e-05H8.66987C9.52465 -0.00254104 10.3452 0.335887 10.9496 0.940309C11.554 1.54473 11.8924 2.36524 11.8899 3.22001V5.75001C11.8899 7.86711 10.1736 9.58335 8.05653 9.58335ZM6.48487 1.43751C5.50042 1.43751 4.70237 2.23557 4.70237 3.22001V5.75001C4.70237 7.0732 5.77502 8.14585 7.0982 8.14585H8.05653C9.37972 8.14585 10.4524 7.0732 10.4524 5.75001V3.22001C10.4524 2.74727 10.2646 2.29388 9.93029 1.9596C9.596 1.62531 9.14262 1.43751 8.66987 1.43751H6.48487Z" fill="white"/>
</svg>
