<svg width="14" height="19" viewBox="0 0 14 19" fill="none" xmlns="http://www.w3.org/2000/svg">
<path d="M11.82 12.6432C11.4551 12.4713 11.0106 12.6047 10.82 12.9432C10.6438 13.2882 10.7895 13.702 11.15 13.8808C12.03 14.3027 12.53 14.8184 12.53 15.3153C12.53 16.3748 10.17 17.5561 7.01 17.5561C3.85 17.5561 1.48 16.3842 1.48 15.3528C1.48 14.8653 1.98 14.3402 2.86 13.9183C3.1239 13.8191 3.30528 13.5885 3.3284 13.3228C3.35151 13.0571 3.2124 12.802 2.96914 12.664C2.72588 12.526 2.4203 12.5289 2.18 12.6713C0.965898 13.1004 0.119478 14.1415 0 15.3528C0 17.4342 3 19 7 19C11 19 14 17.4342 14 15.3528C13.8916 14.131 13.0432 13.0766 11.82 12.6432Z" />
<path fill-rule="evenodd" clip-rule="evenodd" d="M6.25 15.7654V11.715C2.95689 11.343 0.542527 8.63067 0.741265 5.52639C0.940003 2.4221 3.68308 0 7 0C10.3169 0 13.06 2.4221 13.2587 5.52639C13.4575 8.63067 11.0431 11.343 7.75 11.715V15.7654C7.75 16.1537 7.41421 16.4685 7 16.4685C6.58579 16.4685 6.25 16.1537 6.25 15.7654ZM11.4242 4.16391C10.6818 2.48839 8.93515 1.39787 7 1.40166C4.36789 1.40682 2.2355 3.40609 2.23 5.87391C2.22596 7.68826 3.38908 9.32589 5.17615 10.022C6.96322 10.718 9.02161 10.3352 10.39 9.05226C11.7583 7.76932 12.1666 5.83942 11.4242 4.16391Z" />
<path d="M4.59 6.91462C5.00422 6.91462 5.34 6.59979 5.34 6.21144C5.34 5.13439 6.27125 4.26127 7.42 4.26127C7.83421 4.26127 8.17 3.94645 8.17 3.55809C8.17 3.16973 7.83421 2.85491 7.42 2.85491C6.46787 2.85739 5.55579 3.2144 4.88441 3.84738C4.21303 4.48037 3.83735 5.33749 3.84 6.23019C3.84264 6.4142 3.92314 6.5897 4.06379 6.71806C4.20445 6.84642 4.39374 6.91712 4.59 6.91462Z" />
</svg>
