<svg width="23" height="23" viewBox="0 0 13 16" fill="none" xmlns="http://www.w3.org/2000/svg">
<path fill-rule="evenodd" clip-rule="evenodd" d="M5.755 15.8578C5.95797 15.9496 6.17788 15.9981 6.40064 16C6.62301 15.9987 6.84268 15.9511 7.04562 15.8602C7.24856 15.7693 7.43032 15.6371 7.57931 15.472C9.52598 13.3067 12.8006 9.25867 12.8006 6.592C12.8249 4.86951 12.1645 3.20782 10.9645 1.97185C9.76455 0.735878 8.1231 0.0266799 6.40064 0C4.67819 0.0266799 3.03674 0.735878 1.83677 1.97185C0.636797 3.20782 -0.0235866 4.86951 0.000644001 6.592C0.000644001 9.27467 3.27531 13.3333 5.22198 15.4667C5.37049 15.6327 5.55204 15.7659 5.755 15.8578ZM4.62282 9.0607C5.14906 9.41232 5.76774 9.6 6.40064 9.6C7.24934 9.6 8.06327 9.26286 8.66339 8.66274C9.2635 8.06263 9.60064 7.24869 9.60064 6.4C9.60064 5.7671 9.41297 5.14841 9.06135 4.62218C8.70973 4.09594 8.20995 3.68579 7.62523 3.44359C7.04051 3.20139 6.39709 3.13802 5.77635 3.26149C5.15562 3.38496 4.58543 3.68973 4.1379 4.13726C3.69037 4.58479 3.3856 5.15497 3.26213 5.77571C3.13866 6.39645 3.20203 7.03987 3.44423 7.62459C3.68643 8.20931 4.09658 8.70908 4.62282 9.0607ZM5.21543 4.6262C5.56625 4.39179 5.97871 4.26667 6.40064 4.26667C6.96644 4.26667 7.50906 4.49143 7.90914 4.89151C8.30921 5.29158 8.53398 5.83421 8.53398 6.4C8.53398 6.82194 8.40886 7.23439 8.17445 7.58522C7.94003 7.93604 7.60685 8.20948 7.21703 8.37094C6.82722 8.53241 6.39828 8.57466 5.98445 8.49234C5.57062 8.41003 5.1905 8.20685 4.89215 7.9085C4.5938 7.61014 4.39062 7.23002 4.3083 6.81619C4.22599 6.40237 4.26823 5.97343 4.4297 5.58361C4.59117 5.19379 4.8646 4.86061 5.21543 4.6262Z" fill="#231f20"/>
</svg>
