<svg width="19" height="19" viewBox="0 0 19 19" fill="none" xmlns="http://www.w3.org/2000/svg">
<path fill-rule="evenodd" clip-rule="evenodd" d="M1.07314 5.45418C2.51464 2.15951 5.89211 0.00965651 9.64161 0.000123962C13.6827 -0.0201314 17.2759 2.44366 18.5356 6.09854C19.7952 9.75341 18.4336 13.7644 15.1653 16.0266C11.8969 18.2888 7.46847 18.2855 4.20393 16.0183L1.29306 18.789C0.997099 19.0703 0.517648 19.0703 0.221691 18.789C-0.0738972 18.5073 -0.0738972 18.0509 0.221691 17.7692L3.0416 15.0851C0.407566 12.5451 -0.368351 8.74886 1.07314 5.45418ZM2.42463 11.7073C3.63494 14.4834 6.48385 16.2915 9.64161 16.2877V16.2492C13.9274 16.244 17.4065 12.9495 17.4343 8.87024C17.4383 5.86453 15.5388 3.15281 12.6222 2.00078C9.70555 0.848746 6.34699 1.48356 4.11412 3.60891C1.88125 5.73427 1.21432 8.9311 2.42463 11.7073Z" fill="white"/>
</svg>
