<svg width="17" height="17" viewBox="0 0 17 17" fill="none" xmlns="http://www.w3.org/2000/svg">
<path d="M13.2233 16.9956C13.0871 16.9962 12.9527 16.9625 12.8315 16.8972L8.48722 14.5094L4.14294 16.8972C4.00187 16.9751 3.84282 17.0099 3.68387 16.9976C3.52492 16.9853 3.37245 16.9264 3.24378 16.8277C3.11511 16.7289 3.01542 16.5942 2.95602 16.439C2.89663 16.2837 2.87992 16.114 2.9078 15.9493L3.75962 10.9143L0.25012 7.33704C0.140625 7.22232 0.0629507 7.07846 0.0254333 6.92091C-0.0120842 6.76335 -0.00802862 6.59804 0.0371647 6.44273C0.0865362 6.28378 0.177354 6.14255 0.299313 6.03506C0.421271 5.92757 0.569486 5.85812 0.727139 5.83459L5.58251 5.09231L7.72058 0.504491C7.79034 0.353288 7.89924 0.225771 8.03483 0.136547C8.17042 0.0473227 8.3272 0 8.48722 0C8.64724 0 8.80403 0.0473227 8.93961 0.136547C9.0752 0.225771 9.18411 0.353288 9.25386 0.504491L11.4175 5.08337L16.2729 5.82565C16.4305 5.84918 16.5787 5.91863 16.7007 6.02612C16.8226 6.13361 16.9135 6.27484 16.9628 6.43378C17.008 6.5891 17.0121 6.75441 16.9746 6.91196C16.937 7.06952 16.8594 7.21338 16.7499 7.32809L13.2404 10.9053L14.0922 15.9403C14.1226 16.108 14.1067 16.2813 14.0463 16.4398C13.9859 16.5982 13.8836 16.7352 13.7515 16.8346C13.5972 16.9481 13.4115 17.0047 13.2233 16.9956Z" fill="#231f20"/>
</svg>
