<svg width="23" height="23" viewBox="0 0 25 25" fill="none" xmlns="http://www.w3.org/2000/svg">
<path d="M20.1667 4.83333L16.1141 8.8859M16.1141 8.8859C15.1892 7.96097 13.9114 7.38889 12.5 7.38889C11.0886 7.38889 9.81083 7.96097 8.8859 8.8859M16.1141 8.8859C17.039 9.81083 17.6111 11.0886 17.6111 12.5C17.6111 13.9114 17.039 15.1892 16.1141 16.1141M20.1667 20.1667L16.1141 16.1141M16.1141 16.1141C15.1892 17.039 13.9114 17.6111 12.5 17.6111C11.0886 17.6111 9.81083 17.039 8.8859 16.1141M4.83333 20.1667L8.8859 16.1141M8.8859 16.1141C7.96097 15.1892 7.38889 13.9114 7.38889 12.5C7.38889 11.0886 7.96097 9.81083 8.8859 8.8859M4.83333 4.83333L8.8859 8.8859M24 12.5C24 18.8513 18.8513 24 12.5 24C6.14872 24 1 18.8513 1 12.5C1 6.14872 6.14872 1 12.5 1C18.8513 1 24 6.14872 24 12.5Z" stroke="#1C759E" stroke-width="2" stroke-linecap="round" stroke-linejoin="round"/>
</svg>
